<svg clip-rule="evenodd" fill-rule="evenodd" height="2048" image-rendering="optimizeQuality" shape-rendering="geometricPrecision" text-rendering="geometricPrecision" viewBox="0 0 2048 2048" width="2048" xmlns="http://www.w3.org/2000/svg"><path d="m0 0h2048v2048h-2048z" fill="none"/><path d="m255.999 255.999h1536v1536h-1536z" fill="none"/><path d="m454.851 255.999h848.395v268.747c0 33.228 27.184 60.411 60.411 60.411h268.344v814.843c0 22-17.999 40-40 40h-1137.149c-22 0-39.998-18-39.998-40v-1104c0-22 17.999-40 39.999-40z" fill="#ffcc80"/><path d="m1303.19 255.999 328.759 329.158h-269.982c-32.328 0-58.776-26.448-58.776-58.776v-270.382z" fill="#ffb74d"/><g fill="#ef6c00"><path d="m671.999 755.343h736.001v64.001h-736.001z" fill-rule="nonzero"/><path d="m671.999 979.338h736.001v64.002h-736.001z" fill-rule="nonzero"/><path d="m337.396 1218.19h1373.21c22.375 0 42.735 9.234 57.51 24.108 14.738 14.835 23.887 35.238 23.887 57.618v394.353c0 22.381-9.15 42.782-23.887 57.618-14.777 14.874-35.136 24.109-57.51 24.109h-1373.21c-22.373 0-42.735-9.235-57.512-24.109-14.736-14.833-23.885-35.234-23.885-57.618v-394.353c0-22.381 9.149-42.783 23.885-57.618 14.775-14.874 35.137-24.108 57.512-24.108z"/></g><path d="m1150.37 1676.06h-78.666l-31.25-81.333h-143.084l-29.5 81.333h-76.667l139.416-357.917h76.418zm-133.083-141.584-49.334-132.833-48.333 132.833zm170.916-152.834v-63.5h68.584v63.5zm0 294.417v-259.25h68.584v259.25z" fill="#ffcc80" fill-rule="nonzero"/></svg>