<?xml version="1.0" encoding="UTF-8"?><!DOCTYPE svg PUBLIC "-//W3C//DTD SVG 1.1//EN" "http://www.w3.org/Graphics/SVG/1.1/DTD/svg11.dtd"><svg xmlns="http://www.w3.org/2000/svg" xmlns:xlink="http://www.w3.org/1999/xlink" xml:space="preserve" width="2048px" height="2048px" viewBox="0 0 2048 2048" shape-rendering="geometricPrecision" text-rendering="geometricPrecision" image-rendering="optimizeQuality" fill-rule="evenodd" clip-rule="evenodd"><defs><style type="text/css"><![CDATA[
    .fil0 {fill:none}
    .fil4 {fill:#D32F2F}
    .fil1 {fill:#EF9A9A}
    .fil2 {fill:#FFCDD2}
    .fil3 {fill:#D32F2F;fill-rule:nonzero}
    .fil5 {fill:white;fill-rule:nonzero}
   ]]></style></defs><g id="Layer_x0020_1"><path class="fil0" fill="none" d="M0 0h2048v2048H0z"/><path class="fil0" fill="none" d="M255.999 255.999h1536v1536h-1536z"/><path class="fil1" d="M1303.19 263.999l328.759 329.158h-269.982c-32.328 0-58.776-26.448-58.776-58.776V263.999z" fill="#EF9A9A"/><path class="fil2" d="M454.851 263.999h848.395v268.747c0 33.228 27.184 60.411 60.411 60.411h268.344V1408c0 22-17.999 40-40 40H454.852c-22 0-39.998-18-39.998-40V304c0-22 17.999-40 39.999-40z" fill="#FFCDD2"/><path class="fil3" fill="#D32F2F" fill-rule="nonzero" d="M671.999 763.342H1408v64.002H671.999z"/><path class="fil3" fill="#D32F2F" fill-rule="nonzero" d="M671.999 987.337H1408v64.003H671.999z"/><path class="fil4" d="M337.396 1226.19h1373.21c22.375 0 42.735 9.234 57.51 24.108 14.738 14.835 23.887 35.238 23.887 57.618v394.353c0 22.381-9.15 42.782-23.887 57.618-14.777 14.874-35.136 24.109-57.51 24.109H337.396c-22.373 0-42.735-9.235-57.512-24.109-14.736-14.833-23.885-35.234-23.885-57.618v-394.353c0-22.381 9.149-42.783 23.885-57.618 14.775-14.874 35.137-24.108 57.512-24.108z" fill="#D32F2F"/><path class="fil5" d="M874.499 1681.01h-78.666l-31.25-81.333H621.5L592 1681.01h-76.667l139.416-357.917h76.418l143.333 357.917zm-133.083-141.584l-49.334-132.833-48.333 132.833h97.667zm170.916-216.333h72.25v193.833c0 30.75.917 50.75 2.667 59.834 3.083 14.666 10.5 26.416 22.083 35.25 11.667 8.916 27.584 13.333 47.75 13.333 20.5 0 36-4.167 46.417-12.584 10.417-8.333 16.667-18.666 18.75-30.832 2.167-12.25 3.167-32.5 3.167-60.834v-198h72.25v188c0 43-1.916 73.333-5.833 91.083-3.918 17.75-11.084 32.667-21.584 44.917-10.5 12.167-24.583 21.917-42.083 29.167-17.584 7.25-40.583 10.834-68.917 10.834-34.167 0-60.084-3.918-77.75-11.834-17.666-7.917-31.583-18.166-41.833-30.75-10.25-12.583-17-25.834-20.25-39.667-4.75-20.5-7.084-50.75-7.084-90.833v-190.917zm442.083 357.917v-297.333h-106.166v-60.584h284.417v60.584h-105.917v297.333h-72.334z" fill="#fff" fill-rule="nonzero"/></g><metadata><rdf:RDF xmlns:rdf="http://www.w3.org/1999/02/22-rdf-syntax-ns#" xmlns:rdfs="http://www.w3.org/2000/01/rdf-schema#" xmlns:dc="http://purl.org/dc/elements/1.1/"><rdf:Description about="https://iconscout.com/legal#licenses" dc:title="aut" dc:description="aut" dc:publisher="Iconscout" dc:date="2018-01-01" dc:format="image/svg+xml" dc:language="en"><dc:creator><rdf:Bag><rdf:li>Icon Bunny</rdf:li></rdf:Bag></dc:creator></rdf:Description></rdf:RDF></metadata></svg>