<?xml version="1.0" encoding="UTF-8"?><!DOCTYPE svg PUBLIC "-//W3C//DTD SVG 1.1//EN" "http://www.w3.org/Graphics/SVG/1.1/DTD/svg11.dtd"><svg xmlns="http://www.w3.org/2000/svg" xmlns:xlink="http://www.w3.org/1999/xlink" xml:space="preserve" width="2048px" height="2048px" viewBox="0 0 2048 2048" shape-rendering="geometricPrecision" text-rendering="geometricPrecision" image-rendering="optimizeQuality" fill-rule="evenodd" clip-rule="evenodd"><defs><style type="text/css"><![CDATA[
    .fil0 {fill:none}
    .fil4 {fill:#546E7A}
    .fil1 {fill:#78909C}
    .fil2 {fill:#CFD8DC}
    .fil3 {fill:#546E7A;fill-rule:nonzero}
    .fil5 {fill:white;fill-rule:nonzero}
   ]]></style></defs><g id="Layer_x0020_1"><path class="fil0" fill="none" d="M0 0h2048v2048H0z"/><path class="fil0" fill="none" d="M255.999 255.999h1536v1536h-1536z"/><path class="fil1" d="M1303.19 263.999l328.759 329.158h-269.982c-32.328 0-58.776-26.448-58.776-58.776V263.999z" fill="#78909C"/><path class="fil2" d="M454.851 263.999h848.395v268.747c0 33.228 27.184 60.411 60.411 60.411h268.344V1408c0 22-17.999 40-40 40H454.852c-22 0-39.998-18-39.998-40V304c0-22 17.999-40 39.999-40z" fill="#CFD8DC"/><path class="fil3" fill="#546E7A" fill-rule="nonzero" d="M671.999 763.342H1408v64.002H671.999z"/><path class="fil3" fill="#546E7A" fill-rule="nonzero" d="M671.999 987.337H1408v64.003H671.999z"/><path class="fil4" d="M337.396 1226.19h1373.21c22.375 0 42.735 9.234 57.51 24.108 14.738 14.835 23.887 35.238 23.887 57.618v394.353c0 22.381-9.15 42.782-23.887 57.618-14.777 14.874-35.136 24.109-57.51 24.109H337.396c-22.373 0-42.735-9.235-57.512-24.109-14.736-14.833-23.885-35.234-23.885-57.618v-394.353c0-22.381 9.149-42.783 23.885-57.618 14.775-14.874 35.137-24.108 57.512-24.108z" fill="#546E7A"/><path class="fil5" d="M650.041 1326.14h143.084c28.334 0 49.5 1.167 63.416 3.583 13.917 2.334 26.334 7.25 37.333 14.75 11.001 7.5 20.084 17.417 27.417 29.917 7.334 12.417 11 26.417 11 41.834 0 16.75-4.5 32.166-13.5 46.166-9.083 14-21.333 24.5-36.75 31.5 21.75 6.334 38.584 17.167 50.25 32.416 11.75 15.335 17.584 33.335 17.584 54 0 16.251-3.75 32.084-11.334 47.5-7.584 15.334-17.916 27.667-31 36.835-13.083 9.166-29.25 14.832-48.5 17-12 1.249-41.083 2.083-87.166 2.416H650.042V1326.14zm72.333 59.583v82.75h47.334c28.166 0 45.666-.416 52.5-1.249 12.333-1.417 22.083-5.667 29.166-12.75 7.083-7.084 10.584-16.417 10.584-28 0-11.084-3-20.084-9.084-27-6.166-6.917-15.25-11.084-27.25-12.5-7.166-.834-27.75-1.25-61.75-1.25h-41.5zm0 142.334v95.667h66.834c26.082 0 42.582-.667 49.583-2.167 10.75-1.916 19.5-6.75 26.25-14.25 6.75-7.583 10.167-17.75 10.167-30.416 0-10.75-2.667-19.834-7.833-27.334-5.25-7.5-12.75-13-22.584-16.417-9.833-3.416-31.25-5.083-64.083-5.083h-58.334zm286.334 156V1326.14h72.25v357.917h-72.25zm141.833 0V1326.14h70.334l146.5 239v-239h67.166v357.917h-72.582l-144.25-233.417v233.417h-67.168z" fill="#fff" fill-rule="nonzero"/></g><metadata><rdf:RDF xmlns:rdf="http://www.w3.org/1999/02/22-rdf-syntax-ns#" xmlns:rdfs="http://www.w3.org/2000/01/rdf-schema#" xmlns:dc="http://purl.org/dc/elements/1.1/"><rdf:Description about="https://iconscout.com/legal#licenses" dc:title="bin" dc:description="bin" dc:publisher="Iconscout" dc:date="2018-01-01" dc:format="image/svg+xml" dc:language="en"><dc:creator><rdf:Bag><rdf:li>Icon Bunny</rdf:li></rdf:Bag></dc:creator></rdf:Description></rdf:RDF></metadata></svg>