<?xml version="1.0" encoding="UTF-8"?><!DOCTYPE svg PUBLIC "-//W3C//DTD SVG 1.1//EN" "http://www.w3.org/Graphics/SVG/1.1/DTD/svg11.dtd"><svg xmlns="http://www.w3.org/2000/svg" xmlns:xlink="http://www.w3.org/1999/xlink" xml:space="preserve" width="2048px" height="2048px" viewBox="0 0 2048 2048" shape-rendering="geometricPrecision" text-rendering="geometricPrecision" image-rendering="optimizeQuality" fill-rule="evenodd" clip-rule="evenodd"><defs><style type="text/css"><![CDATA[
    .fil0 {fill:none}
    .fil4 {fill:#F57C00}
    .fil1 {fill:#FFA726}
    .fil2 {fill:#FFCC80}
    .fil3 {fill:#F57C00;fill-rule:nonzero}
    .fil5 {fill:white;fill-rule:nonzero}
   ]]></style></defs><g id="Layer_x0020_1"><path class="fil0" fill="none" d="M0 0h2048v2048H0z"/><path class="fil0" fill="none" d="M255.999 255.999h1536v1536h-1536z"/><path class="fil1" d="M1303.19 255.999l328.759 329.158h-269.982c-32.328 0-58.776-26.448-58.776-58.776V255.999z" fill="#FFA726"/><path class="fil2" d="M454.851 255.999h848.395v268.747c0 33.228 27.184 60.411 60.411 60.411h268.344V1400c0 22-17.999 40-40 40H454.852c-22 0-39.998-18-39.998-40V296c0-22 17.999-40 39.999-40z" fill="#FFCC80"/><path class="fil3" fill="#F57C00" fill-rule="nonzero" d="M671.999 755.343H1408v64.001H671.999z"/><path class="fil3" fill="#F57C00" fill-rule="nonzero" d="M671.999 979.338H1408v64.002H671.999z"/><path class="fil4" d="M337.396 1218.19h1373.21c22.375 0 42.735 9.234 57.51 24.108 14.738 14.835 23.887 35.238 23.887 57.618v394.353c0 22.381-9.15 42.782-23.887 57.618-14.777 14.874-35.136 24.109-57.51 24.109H337.396c-22.373 0-42.735-9.235-57.512-24.109-14.736-14.833-23.885-35.234-23.885-57.618v-394.353c0-22.381 9.149-42.783 23.885-57.618 14.775-14.874 35.137-24.108 57.512-24.108z" fill="#F57C00"/><path class="fil5" d="M516.5 1318.14h143.084c28.334 0 49.5 1.167 63.416 3.583 13.917 2.334 26.334 7.25 37.333 14.75 11.001 7.5 20.084 17.417 27.417 29.917 7.334 12.417 11 26.417 11 41.834 0 16.75-4.5 32.166-13.5 46.166-9.083 14-21.333 24.5-36.75 31.5 21.75 6.334 38.584 17.167 50.25 32.416 11.75 15.335 17.584 33.335 17.584 54 0 16.251-3.75 32.084-11.334 47.5-7.584 15.334-17.916 27.667-31 36.835-13.083 9.166-29.25 14.832-48.5 17-12 1.249-41.083 2.083-87.166 2.416H516.5V1318.14zm72.333 59.583v82.75h47.334c28.166 0 45.666-.416 52.5-1.249 12.333-1.417 22.083-5.667 29.166-12.75 7.083-7.084 10.584-16.417 10.584-28 0-11.084-3-20.084-9.084-27-6.166-6.917-15.25-11.084-27.25-12.5-7.166-.834-27.75-1.25-61.75-1.25h-41.5zm0 142.334v95.667h66.834c26.082 0 42.582-.667 49.583-2.167 10.75-1.916 19.5-6.75 26.25-14.25 6.75-7.583 10.167-17.75 10.167-30.416 0-10.75-2.667-19.834-7.833-27.334-5.25-7.5-12.75-13-22.584-16.417-9.833-3.416-31.25-5.083-64.083-5.083h-58.334zm287.583 156V1318.14h108.167l64.917 244.167 64.167-244.167h108.416v357.917H1155v-281.75l-71.084 281.75h-69.583l-70.833-281.75v281.75h-67.083zm417.5 0V1318.14h115.916c43.917 0 72.584 1.833 85.917 5.417 20.5 5.334 37.75 17 51.584 35 13.833 18 20.75 41.25 20.75 69.667 0 22-4 40.5-12 55.416-8 15-18.084 26.75-30.417 35.334-12.25 8.5-24.75 14.166-37.417 16.917-17.25 3.415-42.25 5.166-75 5.166h-47.084v135h-72.249zm72.25-297.333v101.5h39.5c28.5 0 47.583-1.834 57.167-5.584 9.583-3.75 17.083-9.584 22.583-17.583 5.416-8 8.167-17.25 8.167-27.833 0-13-3.834-23.75-11.5-32.25-7.583-8.416-17.333-13.75-29-15.834-8.667-1.666-26.001-2.416-52-2.416h-34.918z" fill="#fff" fill-rule="nonzero"/></g><metadata><rdf:RDF xmlns:rdf="http://www.w3.org/1999/02/22-rdf-syntax-ns#" xmlns:rdfs="http://www.w3.org/2000/01/rdf-schema#" xmlns:dc="http://purl.org/dc/elements/1.1/"><rdf:Description about="https://iconscout.com/legal#licenses" dc:title="bmp" dc:description="bmp" dc:publisher="Iconscout" dc:date="2018-01-01" dc:format="image/svg+xml" dc:language="en"><dc:creator><rdf:Bag><rdf:li>Icon Bunny</rdf:li></rdf:Bag></dc:creator></rdf:Description></rdf:RDF></metadata></svg>