<?xml version="1.0" encoding="UTF-8"?><!DOCTYPE svg PUBLIC "-//W3C//DTD SVG 1.1//EN" "http://www.w3.org/Graphics/SVG/1.1/DTD/svg11.dtd"><svg xmlns="http://www.w3.org/2000/svg" xmlns:xlink="http://www.w3.org/1999/xlink" xml:space="preserve" width="2048px" height="2048px" viewBox="0 0 2048 2048" shape-rendering="geometricPrecision" text-rendering="geometricPrecision" image-rendering="optimizeQuality" fill-rule="evenodd" clip-rule="evenodd"><defs><style type="text/css"><![CDATA[
    .fil0 {fill:none}
    .fil4 {fill:#039BE5}
    .fil1 {fill:#81D4FA}
    .fil2 {fill:#B3E5FC}
    .fil3 {fill:#039BE5;fill-rule:nonzero}
    .fil5 {fill:white;fill-rule:nonzero}
   ]]></style></defs><g id="Layer_x0020_1"><path class="fil0" fill="none" d="M0 0h2048v2048H0z"/><path class="fil0" fill="none" d="M255.999 255.999h1536v1536h-1536z"/><path class="fil1" d="M1303.19 263.999l328.759 329.158h-269.982c-32.328 0-58.776-26.448-58.776-58.776V263.999z" fill="#81D4FA"/><path class="fil2" d="M454.851 263.999h848.395v268.747c0 33.228 27.184 60.411 60.411 60.411h268.344V1408c0 22-17.999 40-40 40H454.852c-22 0-39.998-18-39.998-40V304c0-22 17.999-40 39.999-40z" fill="#B3E5FC"/><path class="fil3" fill="#039BE5" fill-rule="nonzero" d="M671.999 763.342H1408v64.002H671.999z"/><path class="fil3" fill="#039BE5" fill-rule="nonzero" d="M671.999 987.337H1408v64.003H671.999z"/><path class="fil4" d="M337.396 1226.19h1373.21c22.375 0 42.735 9.234 57.51 24.108 14.738 14.835 23.887 35.238 23.887 57.618v394.353c0 22.381-9.15 42.782-23.887 57.618-14.777 14.874-35.136 24.109-57.51 24.109H337.396c-22.373 0-42.735-9.235-57.512-24.109-14.736-14.833-23.885-35.234-23.885-57.618v-394.353c0-22.381 9.149-42.783 23.885-57.618 14.775-14.874 35.137-24.108 57.512-24.108z" fill="#039BE5"/><path class="fil5" d="M760.249 1552.47l70 22.167c-10.75 39.083-28.583 68.082-53.583 87.083-24.916 18.916-56.667 28.417-95.083 28.417-47.5 0-86.583-16.25-117.167-48.667-30.584-32.5-45.917-76.918-45.917-133.168 0-59.583 15.417-105.832 46.167-138.832 30.749-32.917 71.166-49.417 121.332-49.417 43.75 0 79.334 12.917 106.667 38.833 16.334 15.25 28.5 37.25 36.668 65.917l-71.583 17.084c-4.167-18.584-13-33.25-26.5-44.001-13.417-10.75-29.75-16.083-48.917-16.083-26.5 0-48.084 9.5-64.584 28.583-16.5 19-24.75 49.834-24.75 92.5 0 45.25 8.083 77.5 24.417 96.667 16.25 19.25 37.417 28.833 63.417 28.833 19.25 0 35.75-6.084 49.582-18.333 13.835-12.166 23.751-31.417 29.834-57.583zm454.833 131.583h-78.666l-31.25-81.333H962.082l-29.5 81.333h-76.667l139.416-357.917h76.418l143.333 357.917zm-133.083-141.584l-49.334-132.833-48.333 132.833H1082zm171.167-216.333h132.084c29.75 0 52.416 2.25 68.082 6.834 21 6.166 39 17.166 53.918 33 15 15.75 26.416 35.083 34.25 57.916 7.75 22.916 11.666 51.083 11.666 84.667 0 29.416-3.667 54.834-11 76.167-8.917 26-21.667 47.083-38.333 63.166-12.5 12.25-29.417 21.75-50.75 28.583-15.916 5.083-37.25 7.584-64 7.584h-135.917v-357.917zm72.25 60.584v237h53.917c20.167 0 34.75-1.084 43.75-3.417 11.667-2.917 21.417-7.834 29.166-14.834 7.75-7 14.001-18.583 18.917-34.583 4.833-16 7.333-37.917 7.333-65.584 0-27.666-2.5-48.833-7.333-63.666-4.916-14.834-11.75-26.417-20.5-34.667-8.833-8.334-20-13.917-33.5-16.833-10.083-2.334-29.834-3.417-59.333-3.417h-32.417z" fill="#fff" fill-rule="nonzero"/></g><metadata><rdf:RDF xmlns:rdf="http://www.w3.org/1999/02/22-rdf-syntax-ns#" xmlns:rdfs="http://www.w3.org/2000/01/rdf-schema#" xmlns:dc="http://purl.org/dc/elements/1.1/"><rdf:Description about="https://iconscout.com/legal#licenses" dc:title="cad" dc:description="cad" dc:publisher="Iconscout" dc:date="2018-01-01" dc:format="image/svg+xml" dc:language="en"><dc:creator><rdf:Bag><rdf:li>Icon Bunny</rdf:li></rdf:Bag></dc:creator></rdf:Description></rdf:RDF></metadata></svg>