<?xml version="1.0" encoding="UTF-8"?><!DOCTYPE svg PUBLIC "-//W3C//DTD SVG 1.1//EN" "http://www.w3.org/Graphics/SVG/1.1/DTD/svg11.dtd"><svg xmlns="http://www.w3.org/2000/svg" xmlns:xlink="http://www.w3.org/1999/xlink" xml:space="preserve" width="2048px" height="2048px" viewBox="0 0 2048 2048" shape-rendering="geometricPrecision" text-rendering="geometricPrecision" image-rendering="optimizeQuality" fill-rule="evenodd" clip-rule="evenodd"><defs><style type="text/css"><![CDATA[
    .fil0 {fill:none}
    .fil4 {fill:#43A047}
    .fil1 {fill:#A5D6A7}
    .fil2 {fill:#C8E6C9}
    .fil3 {fill:#43A047;fill-rule:nonzero}
    .fil5 {fill:white;fill-rule:nonzero}
   ]]></style></defs><g id="Layer_x0020_1"><g id="_187054304"><path id="_185238304" class="fil0" fill="none" d="M0 0h2048v2048H0z"/><path id="_185238184" class="fil0" fill="none" d="M255.999 255.999h1536v1536h-1536z"/><path id="_185238016" class="fil1" d="M1303.19 255.999l328.759 329.158h-269.982c-32.328 0-58.776-26.448-58.776-58.776V255.999z" fill="#A5D6A7"/><path id="_185237848" class="fil2" d="M454.851 255.999h848.395v268.747c0 33.228 27.184 60.411 60.411 60.411h268.344V1400c0 22-17.999 40-40 40H454.852c-22 0-39.998-18-39.998-40V296c0-22 17.999-40 39.999-40z" fill="#C8E6C9"/><path id="_185237632" class="fil3" fill="#43A047" fill-rule="nonzero" d="M671.999 755.343H1408v64.001H671.999z"/><path id="_185237704" class="fil3" fill="#43A047" fill-rule="nonzero" d="M671.999 979.338H1408v64.002H671.999z"/><path id="_187054448" class="fil4" d="M337.396 1218.19h1373.21c22.375 0 42.735 9.234 57.51 24.108 14.738 14.835 23.887 35.238 23.887 57.618v394.353c0 22.381-9.15 42.782-23.887 57.618-14.777 14.874-35.136 24.109-57.51 24.109H337.396c-22.373 0-42.735-9.235-57.512-24.109-14.736-14.833-23.885-35.234-23.885-57.618v-394.353c0-22.381 9.149-42.783 23.885-57.618 14.775-14.874 35.137-24.108 57.512-24.108z" fill="#43A047"/><path id="_187054376" class="fil5" d="M749.125 1544.35l70 22.167c-10.75 39.083-28.583 68.082-53.583 87.083-24.916 18.916-56.667 28.417-95.083 28.417-47.5 0-86.583-16.25-117.167-48.668-30.584-32.5-45.917-76.917-45.917-133.167 0-59.583 15.417-105.833 46.167-138.833 30.749-32.916 71.166-49.416 121.332-49.416 43.75 0 79.334 12.917 106.667 38.833 16.334 15.25 28.5 37.25 36.668 65.917l-71.583 17.083c-4.167-18.583-13-33.25-26.5-44-13.417-10.75-29.75-16.083-48.917-16.083-26.5 0-48.084 9.5-64.584 28.583-16.5 19-24.75 49.834-24.75 92.5 0 45.25 8.083 77.5 24.417 96.667 16.25 19.25 37.417 28.833 63.417 28.833 19.25 0 35.75-6.084 49.582-18.333 13.835-12.166 23.751-31.417 29.834-57.583zm131.834-226.334h132.084c29.75 0 52.416 2.25 68.082 6.834 21 6.166 39 17.166 53.918 33 15 15.75 26.416 35.083 34.25 57.916 7.75 22.916 11.666 51.083 11.666 84.667 0 29.416-3.667 54.834-11 76.167-8.917 26-21.667 47.083-38.333 63.166-12.5 12.25-29.417 21.75-50.75 28.583-15.916 5.083-37.25 7.584-64 7.584H880.959v-357.917zm72.25 60.583v237h53.917c20.167 0 34.75-1.083 43.75-3.416 11.667-2.917 21.417-7.834 29.166-14.834 7.75-7 14.001-18.583 18.917-34.583 4.833-16 7.333-37.917 7.333-65.584 0-27.666-2.5-48.833-7.333-63.666-4.916-14.834-11.75-26.417-20.5-34.667-8.833-8.334-20-13.917-33.5-16.833-10.083-2.334-29.834-3.417-59.333-3.417h-32.417zm289.25 297.333v-357.917h152.166c38.25 0 66 3.25 83.334 9.668 17.333 6.416 31.25 17.832 41.666 34.25 10.417 16.5 15.584 35.25 15.584 56.416 0 26.834-7.916 49.083-23.666 66.584-15.75 17.416-39.417 28.5-70.834 33 15.667 9.166 28.583 19.166 38.75 30.082 10.166 10.917 23.834 30.25 41.084 58.083l43.749 69.834h-86.417l-52.25-77.916c-18.583-27.834-31.249-45.334-38.083-52.584s-14.083-12.166-21.75-14.916c-7.666-2.667-19.75-4-36.417-4h-14.583v149.417h-72.333zm72.334-206.583h53.416c34.667 0 56.334-1.417 65-4.333 8.584-2.916 15.334-8 20.25-15.166 4.834-7.167 7.333-16.084 7.333-26.834 0-12.083-3.249-21.75-9.666-29.166-6.417-7.418-15.5-12.084-27.25-14.084-5.834-.75-23.417-1.167-52.75-1.167h-56.333v90.75z" fill="#fff" fill-rule="nonzero"/></g></g><metadata><rdf:RDF xmlns:rdf="http://www.w3.org/1999/02/22-rdf-syntax-ns#" xmlns:rdfs="http://www.w3.org/2000/01/rdf-schema#" xmlns:dc="http://purl.org/dc/elements/1.1/"><rdf:Description about="https://iconscout.com/legal#licenses" dc:title="cdr" dc:description="cdr" dc:publisher="Iconscout" dc:date="2018-01-01" dc:format="image/svg+xml" dc:language="en"><dc:creator><rdf:Bag><rdf:li>Icon Bunny</rdf:li></rdf:Bag></dc:creator></rdf:Description></rdf:RDF></metadata></svg>