<?xml version="1.0" encoding="UTF-8"?><!DOCTYPE svg PUBLIC "-//W3C//DTD SVG 1.1//EN" "http://www.w3.org/Graphics/SVG/1.1/DTD/svg11.dtd"><svg xmlns="http://www.w3.org/2000/svg" xmlns:xlink="http://www.w3.org/1999/xlink" xml:space="preserve" width="2048px" height="2048px" viewBox="0 0 2048 2048" shape-rendering="geometricPrecision" text-rendering="geometricPrecision" image-rendering="optimizeQuality" fill-rule="evenodd" clip-rule="evenodd"><defs><style type="text/css"><![CDATA[
    .fil0 {fill:none}
    .fil4 {fill:#039BE5}
    .fil1 {fill:#81D4FA}
    .fil2 {fill:#B3E5FC}
    .fil3 {fill:#039BE5;fill-rule:nonzero}
    .fil5 {fill:white;fill-rule:nonzero}
   ]]></style></defs><g id="Layer_x0020_1"><path class="fil0" fill="none" d="M0 0h2048v2048H0z"/><path class="fil0" fill="none" d="M255.999 255.999h1536v1536h-1536z"/><path class="fil1" d="M1303.19 263.999l328.759 329.158h-269.982c-32.328 0-58.776-26.448-58.776-58.776V263.999z" fill="#81D4FA"/><path class="fil2" d="M454.851 263.999h848.395v268.747c0 33.228 27.184 60.411 60.411 60.411h268.344V1408c0 22-17.999 40-40 40H454.852c-22 0-39.998-18-39.998-40V304c0-22 17.999-40 39.999-40z" fill="#B3E5FC"/><path class="fil3" fill="#039BE5" fill-rule="nonzero" d="M671.999 763.342H1408v64.002H671.999z"/><path class="fil3" fill="#039BE5" fill-rule="nonzero" d="M671.999 987.337H1408v64.003H671.999z"/><path class="fil4" d="M337.396 1226.19h1373.21c22.375 0 42.735 9.234 57.51 24.108 14.738 14.835 23.887 35.238 23.887 57.618v394.353c0 22.381-9.15 42.782-23.887 57.618-14.777 14.874-35.136 24.109-57.51 24.109H337.396c-22.373 0-42.735-9.235-57.512-24.109-14.736-14.833-23.885-35.234-23.885-57.618v-394.353c0-22.381 9.149-42.783 23.885-57.618 14.775-14.874 35.137-24.108 57.512-24.108z" fill="#039BE5"/><path class="fil5" d="M787.583 1552.35l70 22.167C846.833 1613.6 829 1642.599 804 1661.6c-24.916 18.916-56.667 28.417-95.083 28.417-47.5 0-86.583-16.25-117.167-48.668-30.584-32.5-45.917-76.917-45.917-133.167 0-59.583 15.417-105.833 46.167-138.833 30.749-32.916 71.166-49.416 121.332-49.416 43.75 0 79.334 12.917 106.667 38.833 16.334 15.25 28.5 37.25 36.668 65.917l-71.584 17.083c-4.166-18.583-13-33.25-26.5-44-13.416-10.75-29.75-16.083-48.917-16.083-26.5 0-48.083 9.5-64.583 28.583-16.5 19-24.75 49.834-24.75 92.5 0 45.25 8.083 77.5 24.416 96.667 16.25 19.25 37.418 28.833 63.417 28.833 19.25 0 35.75-6.084 49.583-18.333 13.834-12.166 23.751-31.417 29.834-57.583zm113.751 15.166l70.332-6.916c4.167 23.667 12.75 41 25.75 52.083 12.917 11 30.334 16.584 52.334 16.584 23.25 0 40.833-4.917 52.583-14.834 11.833-9.833 17.75-21.333 17.75-34.5 0-8.5-2.5-15.667-7.5-21.583-4.916-6-13.583-11.167-26-15.5-8.417-3-27.75-8.167-57.833-15.667-38.75-9.583-65.916-21.417-81.5-35.417-22-19.666-33-43.666-33-72 0-18.25 5.167-35.25 15.5-51.166 10.334-15.834 25.25-27.917 44.667-36.25 19.5-8.25 42.917-12.416 70.416-12.416 45 0 78.75 9.832 101.5 29.499 22.667 19.75 34.583 46 35.75 78.916l-72.25 3.167c-3.083-18.416-9.75-31.667-19.916-39.666-10.167-8.084-25.418-12.084-45.75-12.084-21 0-37.5 4.25-49.334 12.918-7.666 5.499-11.5 12.916-11.5 22.165 0 8.5 3.583 15.75 10.75 21.75 9.083 7.667 31.25 15.668 66.417 23.918 35.166 8.332 61.166 16.915 78 25.749 16.833 8.917 30 21 39.583 36.417 9.5 15.417 14.25 34.417 14.25 57 0 20.5-5.666 39.75-17.084 57.583-11.416 17.916-27.5 31.25-48.333 39.917-20.834 8.75-46.833 13.083-77.916 13.083-45.25 0-80-10.416-104.25-31.334-24.25-20.916-38.75-51.415-43.416-91.416zm333.5 0l70.332-6.916c4.167 23.667 12.75 41 25.75 52.083 12.917 11 30.334 16.584 52.334 16.584 23.25 0 40.833-4.917 52.583-14.834 11.833-9.833 17.75-21.333 17.75-34.5 0-8.5-2.5-15.667-7.5-21.583-4.916-6-13.583-11.167-26-15.5-8.417-3-27.75-8.167-57.833-15.667-38.75-9.583-65.916-21.417-81.5-35.417-22-19.666-33-43.666-33-72 0-18.25 5.167-35.25 15.5-51.166 10.334-15.834 25.25-27.917 44.667-36.25 19.5-8.25 42.917-12.416 70.416-12.416 45 0 78.75 9.832 101.5 29.499 22.667 19.75 34.583 46 35.75 78.916l-72.25 3.167c-3.083-18.416-9.75-31.667-19.916-39.666-10.167-8.084-25.418-12.084-45.75-12.084-21 0-37.5 4.25-49.334 12.918-7.666 5.499-11.5 12.916-11.5 22.165 0 8.5 3.583 15.75 10.75 21.75 9.083 7.667 31.25 15.668 66.417 23.918 35.166 8.332 61.166 16.915 78 25.749 16.833 8.917 30 21 39.583 36.417 9.5 15.417 14.25 34.417 14.25 57 0 20.5-5.666 39.75-17.084 57.583-11.416 17.916-27.5 31.25-48.333 39.917-20.834 8.75-46.833 13.083-77.916 13.083-45.25 0-80-10.416-104.25-31.334-24.25-20.916-38.75-51.415-43.416-91.416z" fill="#fff" fill-rule="nonzero"/></g><metadata><rdf:RDF xmlns:rdf="http://www.w3.org/1999/02/22-rdf-syntax-ns#" xmlns:rdfs="http://www.w3.org/2000/01/rdf-schema#" xmlns:dc="http://purl.org/dc/elements/1.1/"><rdf:Description about="https://iconscout.com/legal#licenses" dc:title="css" dc:description="css" dc:publisher="Iconscout" dc:date="2018-01-01" dc:format="image/svg+xml" dc:language="en"><dc:creator><rdf:Bag><rdf:li>Icon Bunny</rdf:li></rdf:Bag></dc:creator></rdf:Description></rdf:RDF></metadata></svg>