<svg id="ea01fe68-4b81-4ddd-ab21-6afb2661c1f5" data-name="Layer 1" xmlns="http://www.w3.org/2000/svg" viewBox="0 0 2048 2048"><defs><style>.aa38117e-cbe7-406c-afcf-0e96496e0dd9{fill:none;}.e412f754-b4bd-486e-b929-7ea34c7adcc5{fill:#78909c;}.a9aad280-53a6-4cf6-aaf9-d5caa2d98e4d,.ad5c9b6e-d7ce-4dc3-bf0a-98f86d467d11,.e412f754-b4bd-486e-b929-7ea34c7adcc5{fill-rule:evenodd;}.a9aad280-53a6-4cf6-aaf9-d5caa2d98e4d{fill:#cfd8dc;}.ad5c9b6e-d7ce-4dc3-bf0a-98f86d467d11,.e2347fba-d5f5-4844-adb9-3d98b8eef178{fill:#546e7a;}</style></defs><g id="a960f6b1-0086-4591-9794-9e7c69c0503b" data-name="Layer_1"><path class="aa38117e-cbe7-406c-afcf-0e96496e0dd9" d="M0,0H2048V2048H0Z"/><path class="aa38117e-cbe7-406c-afcf-0e96496e0dd9" d="M255.999,255.999h1536v1536h-1536Z"/><path class="e412f754-b4bd-486e-b929-7ea34c7adcc5" d="M1303.18994,263.999l328.759,329.158H1361.967a58.94724,58.94724,0,0,1-58.776-58.776V263.999Z"/><path class="a9aad280-53a6-4cf6-aaf9-d5caa2d98e4d" d="M454.851,263.999h848.39508V532.746a60.58669,60.58669,0,0,0,60.411,60.411h268.344V1408a40.117,40.117,0,0,1-40,40H454.852a40.11587,40.11587,0,0,1-39.998-40V304a40.11674,40.11674,0,0,1,39.999-40Z"/><path class="e2347fba-d5f5-4844-adb9-3d98b8eef178" d="M671.999,763.342H1408v64.002H671.999Z"/><path class="e2347fba-d5f5-4844-adb9-3d98b8eef178" d="M671.999,987.337H1408v64.003H671.999Z"/><path class="ad5c9b6e-d7ce-4dc3-bf0a-98f86d467d11" d="M337.396,1226.18994h1373.21a81.93568,81.93568,0,0,1,81.397,81.72608v394.353a81.93737,81.93737,0,0,1-81.397,81.72705H337.396a81.93395,81.93395,0,0,1-81.397-81.72705V1307.916a81.93226,81.93226,0,0,1,81.397-81.72608Z"/></g></svg>