<?xml version="1.0" encoding="UTF-8"?><!DOCTYPE svg PUBLIC "-//W3C//DTD SVG 1.1//EN" "http://www.w3.org/Graphics/SVG/1.1/DTD/svg11.dtd"><svg xmlns="http://www.w3.org/2000/svg" xmlns:xlink="http://www.w3.org/1999/xlink" xml:space="preserve" width="2048px" height="2048px" viewBox="0 0 2048 2048" shape-rendering="geometricPrecision" text-rendering="geometricPrecision" image-rendering="optimizeQuality" fill-rule="evenodd" clip-rule="evenodd"><defs><style type="text/css"><![CDATA[
    .fil0 {fill:none}
    .fil4 {fill:#43A047}
    .fil1 {fill:#A5D6A7}
    .fil2 {fill:#C8E6C9}
    .fil3 {fill:#43A047;fill-rule:nonzero}
    .fil5 {fill:white;fill-rule:nonzero}
   ]]></style></defs><g id="Layer_x0020_1"><path class="fil0" fill="none" d="M0 0h2048v2048H0z"/><path class="fil0" fill="none" d="M255.999 255.999h1536v1536h-1536z"/><path class="fil1" d="M1303.19 255.999l328.759 329.158h-269.982c-32.328 0-58.776-26.448-58.776-58.776V255.999z" fill="#A5D6A7"/><path class="fil2" d="M454.851 255.999h848.395v268.747c0 33.228 27.184 60.411 60.411 60.411h268.344V1400c0 22-17.999 40-40 40H454.852c-22 0-39.998-18-39.998-40V296c0-22 17.999-40 39.999-40z" fill="#C8E6C9"/><path class="fil3" fill="#43A047" fill-rule="nonzero" d="M671.999 755.343H1408v64.001H671.999z"/><path class="fil3" fill="#43A047" fill-rule="nonzero" d="M671.999 979.338H1408v64.002H671.999z"/><path class="fil4" d="M337.396 1218.19h1373.21c22.375 0 42.735 9.234 57.51 24.108 14.738 14.835 23.887 35.238 23.887 57.618v394.353c0 22.381-9.15 42.782-23.887 57.618-14.777 14.874-35.136 24.109-57.51 24.109H337.396c-22.373 0-42.735-9.235-57.512-24.109-14.736-14.833-23.885-35.234-23.885-57.618v-394.353c0-22.381 9.149-42.783 23.885-57.618 14.775-14.874 35.137-24.108 57.512-24.108z" fill="#43A047"/><path class="fil5" d="M338.25 1318.14h132.084c29.75 0 52.416 2.25 68.082 6.834 21 6.166 39 17.166 53.918 33 15 15.75 26.416 35.083 34.25 57.916 7.75 22.916 11.666 51.083 11.666 84.667 0 29.416-3.667 54.834-11 76.167-8.917 26-21.667 47.083-38.333 63.166-12.5 12.25-29.417 21.75-50.75 28.583-15.916 5.083-37.25 7.584-64 7.584H338.25V1318.14zm72.25 60.584v237h53.917c20.167 0 34.75-1.084 43.75-3.417 11.667-2.917 21.417-7.834 29.166-14.834 7.75-7 14.001-18.583 18.917-34.583 4.833-16 7.333-37.917 7.333-65.584 0-27.666-2.5-48.833-7.333-63.666-4.916-14.834-11.75-26.417-20.5-34.667-8.833-8.334-20-13.917-33.5-16.833-10.083-2.334-29.834-3.417-59.333-3.417H410.5zm274.416 120.584c0-36.501 5.417-67.084 16.334-91.834 8.166-18.166 19.25-34.583 33.333-49.084 14.084-14.416 29.5-25.166 46.25-32.166 22.333-9.5 48-14.166 77.167-14.166 52.75 0 94.916 16.332 126.584 49.083 31.667 32.667 47.5 78.166 47.5 136.416 0 57.834-15.75 103-47.167 135.666C953.5 1665.807 911.5 1682.14 859 1682.14c-53.25 0-95.583-16.251-126.999-48.668-31.417-32.5-47.084-77.25-47.084-134.166zm74.417-2.417c0 40.5 9.417 71.25 28.083 92.166 18.75 20.916 42.5 31.334 71.334 31.334 28.75 0 52.416-10.334 70.916-31.167 18.417-20.75 27.667-51.833 27.667-93.333 0-41-9-71.584-26.917-91.834-17.999-20.167-41.916-30.25-71.666-30.25-29.833 0-53.833 10.25-72.084 30.667-18.166 20.417-27.333 51.167-27.333 92.417zm558.167 47.583l70 22.167c-10.75 39.083-28.584 68.082-53.583 87.083-24.916 18.916-56.667 28.417-95.083 28.417-47.5 0-86.583-16.25-117.167-48.667-30.584-32.5-45.917-76.917-45.917-133.167 0-59.584 15.417-105.833 46.167-138.833 30.749-32.917 71.166-49.417 121.332-49.417 43.75 0 79.334 12.917 106.667 38.833 16.334 15.25 28.5 37.25 36.668 65.917L1315 1433.891c-4.166-18.584-13-33.25-26.5-44.001-13.416-10.75-29.75-16.083-48.917-16.083-26.5 0-48.083 9.5-64.583 28.584-16.5 18.999-24.75 49.833-24.75 92.499 0 45.25 8.083 77.5 24.416 96.667 16.25 19.25 37.418 28.833 63.417 28.833 19.25 0 35.75-6.083 49.583-18.333 13.834-12.166 23.751-31.417 29.834-57.583zm95.667 131.583l122.333-186.75-110.832-171.167h84.416l71.833 115 70.251-115h83.75l-111.333 173.834 122.333 184.083h-87.167l-79.333-123.75-79.583 123.75h-86.667z" fill="#fff" fill-rule="nonzero"/></g><metadata><rdf:RDF xmlns:rdf="http://www.w3.org/1999/02/22-rdf-syntax-ns#" xmlns:rdfs="http://www.w3.org/2000/01/rdf-schema#" xmlns:dc="http://purl.org/dc/elements/1.1/"><rdf:Description about="https://iconscout.com/legal#licenses" dc:title="docx" dc:description="docx" dc:publisher="Iconscout" dc:date="2018-01-01" dc:format="image/svg+xml" dc:language="en"><dc:creator><rdf:Bag><rdf:li>Icon Bunny</rdf:li></rdf:Bag></dc:creator></rdf:Description></rdf:RDF></metadata></svg>