<?xml version="1.0" encoding="UTF-8"?><!DOCTYPE svg PUBLIC "-//W3C//DTD SVG 1.1//EN" "http://www.w3.org/Graphics/SVG/1.1/DTD/svg11.dtd"><svg xmlns="http://www.w3.org/2000/svg" xmlns:xlink="http://www.w3.org/1999/xlink" xml:space="preserve" width="2048px" height="2048px" viewBox="0 0 2048 2048" shape-rendering="geometricPrecision" text-rendering="geometricPrecision" image-rendering="optimizeQuality" fill-rule="evenodd" clip-rule="evenodd"><defs><style type="text/css"><![CDATA[
    .fil0 {fill:none}
    .fil4 {fill:#EF6C00}
    .fil1 {fill:#FFB74D}
    .fil2 {fill:#FFCC80}
    .fil3 {fill:#EF6C00;fill-rule:nonzero}
    .fil5 {fill:white;fill-rule:nonzero}
   ]]></style></defs><g id="Layer_x0020_1"><path class="fil0" fill="none" d="M0 0h2048v2048H0z"/><path class="fil0" fill="none" d="M255.999 255.999h1536v1536h-1536z"/><path class="fil1" d="M1303.19 263.999l328.759 329.158h-269.982c-32.328 0-58.776-26.448-58.776-58.776V263.999z" fill="#FFB74D"/><path class="fil2" d="M454.85 263.999h848.395v268.747c0 33.228 27.184 60.411 60.411 60.411H1632V1408c0 22-17.999 40-40 40H454.85c-22 0-39.998-18-39.998-40V304c0-22 17.998-40 39.999-40z" fill="#FFCC80"/><path class="fil3" d="M854.666 1022.85V633.18c112.499 64.949 225.023 129.854 337.519 194.805l-337.519 194.864z" fill="#EF6C00" fill-rule="nonzero"/><path class="fil4" d="M337.395 1226.19h1373.21c22.375 0 42.735 9.234 57.51 24.108 14.738 14.835 23.887 35.238 23.887 57.618v394.353c0 22.381-9.15 42.782-23.887 57.618-14.777 14.874-35.136 24.109-57.51 24.109H337.395c-22.372 0-42.735-9.235-57.511-24.109-14.737-14.833-23.886-35.234-23.886-57.618v-394.353c0-22.381 9.149-42.783 23.885-57.618 14.775-14.874 35.137-24.108 57.512-24.108z" fill="#EF6C00"/><path class="fil5" d="M607.458 1684.05v-357.917h245.416v60.584H679.792v84.666h149.417v60.583H679.792v152.084h-72.333zm306.917 0v-354.999h72.25v294.666h179.666v60.333H914.375zm357.666 0l-127.917-357.917h78.417l90.5 264.917 87.667-264.917h76.667l-128.167 357.917h-77.166z" fill="#fff" fill-rule="nonzero"/></g><metadata><rdf:RDF xmlns:rdf="http://www.w3.org/1999/02/22-rdf-syntax-ns#" xmlns:rdfs="http://www.w3.org/2000/01/rdf-schema#" xmlns:dc="http://purl.org/dc/elements/1.1/"><rdf:Description about="https://iconscout.com/legal#licenses" dc:title="flv" dc:description="flv" dc:publisher="Iconscout" dc:date="2018-01-01" dc:format="image/svg+xml" dc:language="en"><dc:creator><rdf:Bag><rdf:li>Icon Bunny</rdf:li></rdf:Bag></dc:creator></rdf:Description></rdf:RDF></metadata></svg>