<?xml version="1.0" encoding="UTF-8"?><!DOCTYPE svg PUBLIC "-//W3C//DTD SVG 1.1//EN" "http://www.w3.org/Graphics/SVG/1.1/DTD/svg11.dtd"><svg xmlns="http://www.w3.org/2000/svg" xmlns:xlink="http://www.w3.org/1999/xlink" xml:space="preserve" width="2048px" height="2048px" viewBox="0 0 2048 2048" shape-rendering="geometricPrecision" text-rendering="geometricPrecision" image-rendering="optimizeQuality" fill-rule="evenodd" clip-rule="evenodd"><defs><style type="text/css"><![CDATA[
    .fil0 {fill:none}
    .fil4 {fill:#D32F2F}
    .fil1 {fill:#EF9A9A}
    .fil2 {fill:#FFCDD2}
    .fil3 {fill:#D32F2F;fill-rule:nonzero}
    .fil5 {fill:white;fill-rule:nonzero}
   ]]></style></defs><g id="Layer_x0020_1"><path class="fil0" fill="none" d="M0 0h2048v2048H0z"/><path class="fil0" fill="none" d="M255.999 255.999h1536v1536h-1536z"/><path class="fil1" d="M1303.19 255.999l328.759 329.158h-269.982c-32.328 0-58.776-26.448-58.776-58.776V255.999z" fill="#EF9A9A"/><path class="fil2" d="M454.851 255.999h848.395v268.747c0 33.228 27.184 60.411 60.411 60.411h268.344V1400c0 22-17.999 40-40 40H454.852c-22 0-39.998-18-39.998-40V296c0-22 17.999-40 39.999-40z" fill="#FFCDD2"/><path class="fil3" fill="#D32F2F" fill-rule="nonzero" d="M671.999 755.343H1408v64.001H671.999z"/><path class="fil3" fill="#D32F2F" fill-rule="nonzero" d="M671.999 979.338H1408v64.002H671.999z"/><path class="fil4" d="M337.396 1218.19h1373.21c22.375 0 42.735 9.234 57.51 24.108 14.738 14.835 23.887 35.238 23.887 57.618v394.353c0 22.381-9.15 42.782-23.887 57.618-14.777 14.874-35.136 24.109-57.51 24.109H337.396c-22.373 0-42.735-9.235-57.512-24.109-14.736-14.833-23.885-35.234-23.885-57.618v-394.353c0-22.381 9.149-42.783 23.885-57.618 14.775-14.874 35.137-24.108 57.512-24.108z" fill="#D32F2F"/><path class="fil5" d="M821.875 1544.47v-60.333h155.75v142.583c-15.166 14.667-37.083 27.583-65.834 38.75-28.75 11.083-57.832 16.667-87.25 16.667-37.416 0-70.083-7.834-97.916-23.5-27.834-15.75-48.75-38.168-62.75-67.416-14-29.25-21-61-21-95.334 0-37.25 7.834-70.416 23.417-99.417 15.666-28.916 38.5-51.167 68.666-66.584 22.917-11.916 51.5-17.832 85.667-17.832 44.416 0 79.167 9.333 104.084 27.917 25 18.666 41.083 44.416 48.25 77.332l-71.75 13.417c-5.083-17.584-14.584-31.5-28.5-41.666-13.917-10.167-31.25-15.25-52.084-15.25-31.583 0-56.666 10-75.333 30-18.666 20.083-27.917 49.75-27.917 89.167 0 42.415 9.417 74.332 28.334 95.583 18.832 21.249 43.582 31.833 74.166 31.833 15.166 0 30.334-3 45.583-8.918 15.167-5.916 28.25-13.165 39.167-21.582v-45.417h-82.75zm220.167 131.583v-357.917h72.25v357.917h-72.25zm141.584 0v-357.917h245.416v60.584H1255.96v84.666h149.417v60.583H1255.96v152.084h-72.333z" fill="#fff" fill-rule="nonzero"/></g><metadata><rdf:RDF xmlns:rdf="http://www.w3.org/1999/02/22-rdf-syntax-ns#" xmlns:rdfs="http://www.w3.org/2000/01/rdf-schema#" xmlns:dc="http://purl.org/dc/elements/1.1/"><rdf:Description about="https://iconscout.com/legal#licenses" dc:title="gif" dc:description="gif" dc:publisher="Iconscout" dc:date="2018-01-01" dc:format="image/svg+xml" dc:language="en"><dc:creator><rdf:Bag><rdf:li>Icon Bunny</rdf:li></rdf:Bag></dc:creator></rdf:Description></rdf:RDF></metadata></svg>