<svg id="e0e59912-3cef-4b8d-8722-2c0623e9b822" data-name="Layer 1" xmlns="http://www.w3.org/2000/svg" viewBox="0 0 2048 2048"><defs><style>.f492b4e7-1dc5-4142-9453-78b5ab9a0789{fill:none;}.abddc3c2-21cd-4418-afbc-57fab29d5f43{fill:#7986cb;}.a5ddf278-404f-4d34-a89f-58ebb70e650a,.abddc3c2-21cd-4418-afbc-57fab29d5f43,.bf4dd6f3-0494-4efb-b2f3-f636d7da945a{fill-rule:evenodd;}.bf4dd6f3-0494-4efb-b2f3-f636d7da945a{fill:#c5cae9;}.a5ddf278-404f-4d34-a89f-58ebb70e650a,.b7f5130c-7ac7-4b31-9238-b34dc53721c5{fill:#3949ab;}.e5abcea1-dad3-4a85-a820-a632afdf378a{fill:#fff;}</style></defs><g id="f799edee-e2b7-45c2-aaa3-eae085cdcfff" data-name="Layer_1"><path class="f492b4e7-1dc5-4142-9453-78b5ab9a0789" d="M0,0H2048V2048H0Z"/><path class="f492b4e7-1dc5-4142-9453-78b5ab9a0789" d="M255.999,255.999h1536v1536h-1536Z"/><path class="abddc3c2-21cd-4418-afbc-57fab29d5f43" d="M1303.18994,263.999l328.759,329.158H1361.967a58.94724,58.94724,0,0,1-58.776-58.776V263.999Z"/><path class="bf4dd6f3-0494-4efb-b2f3-f636d7da945a" d="M454.851,263.999h848.39508V532.746a60.58669,60.58669,0,0,0,60.411,60.411h268.344V1408a40.117,40.117,0,0,1-40,40H454.852a40.11587,40.11587,0,0,1-39.998-40V304a40.11674,40.11674,0,0,1,39.999-40Z"/><path class="b7f5130c-7ac7-4b31-9238-b34dc53721c5" d="M671.999,763.342H1408v64.002H671.999Z"/><path class="b7f5130c-7ac7-4b31-9238-b34dc53721c5" d="M671.999,987.337H1408v64.003H671.999Z"/><path class="a5ddf278-404f-4d34-a89f-58ebb70e650a" d="M337.396,1226.18994h1373.21a81.93568,81.93568,0,0,1,81.397,81.72608v394.353a81.93737,81.93737,0,0,1-81.397,81.72705H337.396a81.93395,81.93395,0,0,1-81.397-81.72705V1307.916a81.93226,81.93226,0,0,1,81.397-81.72608Z"/></g><path class="e5abcea1-dad3-4a85-a820-a632afdf378a" d="M878.93408,1558.15137v-60.62793h156.604v143.34765q-22.82886,22.09131-66.15186,38.90528a240.83141,240.83141,0,0,1-87.75195,16.81445q-56.45947,0-98.4292-23.6875-41.97363-23.68359-63.083-67.74609-21.11352-44.05665-21.10937-95.85254,0-56.20606,23.564-99.90137,23.56421-43.689,68.97412-67.01074,34.60986-17.915,86.15625-17.91895,67.01074,0,104.68848,28.10547,37.67579,28.10889,48.47851,77.6875l-72.16552,13.501q-7.61059-26.50927-28.59571-41.85059Q909.126,1386.57862,877.707,1386.5752q-47.6228,0-75.72412,30.1914-28.10889,30.1919-28.10547,89.59278,0,64.06494,28.47363,96.09765,28.47144,32.03174,74.61963,32.03223a125.07456,125.07456,0,0,0,45.77832-8.959q22.94825-8.95752,39.396-21.72363v-45.65527Z"/><path class="e5abcea1-dad3-4a85-a820-a632afdf378a" d="M1071.375,1690.4541V1624.916l189.00391-233.43164H1092.72949v-60.874h263.37793v56.45606L1159.00391,1629.8252H1363.7168v60.6289Z"/></svg>