<?xml version="1.0" encoding="UTF-8"?><!DOCTYPE svg PUBLIC "-//W3C//DTD SVG 1.1//EN" "http://www.w3.org/Graphics/SVG/1.1/DTD/svg11.dtd"><svg xmlns="http://www.w3.org/2000/svg" xmlns:xlink="http://www.w3.org/1999/xlink" xml:space="preserve" width="2048px" height="2048px" viewBox="0 0 2048 2048" shape-rendering="geometricPrecision" text-rendering="geometricPrecision" image-rendering="optimizeQuality" fill-rule="evenodd" clip-rule="evenodd"><defs><style type="text/css"><![CDATA[
    .fil0 {fill:none}
    .fil1 {fill:#546E7A}
    .fil2 {fill:#CFD8DC}
    .fil3 {fill:#546E7A;fill-rule:nonzero}
    .fil4 {fill:white;fill-rule:nonzero}
   ]]></style></defs><g id="Layer_x0020_1"><path class="fil0" fill="none" d="M0 0h2048v2048H0z"/><path class="fil0" fill="none" d="M255.999 255.999h1536v1536h-1536z"/><path class="fil1" d="M1303.19 263.999l328.759 329.158h-269.982c-32.328 0-58.776-26.448-58.776-58.776V263.999z" fill="#546E7A"/><path class="fil2" d="M454.851 263.999h848.395v268.747c0 33.228 27.184 60.411 60.411 60.411h268.344V1408c0 22-17.999 40-40 40H454.852c-22 0-39.998-18-39.998-40V304c0-22 17.999-40 39.999-40z" fill="#CFD8DC"/><path class="fil3" fill="#546E7A" fill-rule="nonzero" d="M671.999 763.342H1408v64.002H671.999z"/><path class="fil3" fill="#546E7A" fill-rule="nonzero" d="M671.999 987.337H1408v64.003H671.999z"/><path class="fil1" d="M337.396 1226.19h1373.21c22.375 0 42.735 9.234 57.51 24.108 14.738 14.835 23.887 35.238 23.887 57.618v394.353c0 22.381-9.15 42.782-23.887 57.618-14.777 14.874-35.136 24.109-57.51 24.109H337.396c-22.373 0-42.735-9.235-57.512-24.109-14.736-14.833-23.885-35.234-23.885-57.618v-394.353c0-22.381 9.149-42.783 23.885-57.618 14.775-14.874 35.137-24.108 57.512-24.108z" fill="#546E7A"/><path class="fil4" d="M637.5 1683.93v-357.917h72.25v357.917H637.5zm122.834-116.417l70.332-6.917c4.167 23.667 12.75 41 25.75 52.084 12.917 11 30.334 16.583 52.334 16.583 23.25 0 40.833-4.916 52.583-14.833 11.833-9.834 17.75-21.333 17.75-34.5 0-8.5-2.5-15.667-7.5-21.584-4.916-6-13.583-11.167-26-15.5-8.417-3-27.75-8.166-57.833-15.666-38.75-9.584-65.916-21.417-81.5-35.417-22-19.667-33-43.667-33-72 0-18.25 5.167-35.25 15.5-51.167 10.334-15.834 25.25-27.916 44.667-36.25 19.5-8.25 42.917-12.416 70.416-12.416 45 0 78.75 9.833 101.5 29.5 22.667 19.75 34.583 46 35.75 78.916l-72.25 3.166c-3.083-18.415-9.75-31.666-19.916-39.666-10.167-8.083-25.418-12.084-45.75-12.084-21 0-37.5 4.251-49.334 12.918-7.666 5.5-11.5 12.917-11.5 22.166 0 8.5 3.583 15.75 10.75 21.75 9.083 7.666 31.25 15.667 66.417 23.917 35.166 8.333 61.166 16.916 78 25.75 16.833 8.917 30 21 39.583 36.416 9.5 15.417 14.25 34.418 14.25 57 0 20.5-5.666 39.75-17.084 57.584-11.416 17.916-27.5 31.25-48.333 39.916-20.834 8.75-46.833 13.084-77.916 13.084-45.25 0-80-10.417-104.25-31.334-24.25-20.916-38.75-51.416-43.416-91.416zm337.166-60.333c0-36.5 5.417-67.083 16.334-91.833 8.166-18.167 19.25-34.584 33.333-49.084 14.083-14.417 29.5-25.166 46.25-32.167 22.333-9.5 48-14.166 77.167-14.166 52.749 0 94.915 16.332 126.584 49.083 31.666 32.667 47.499 78.167 47.499 136.416 0 57.834-15.75 103-47.166 135.666-31.418 32.585-73.418 48.918-125.917 48.918-53.25 0-95.583-16.25-127-48.667-31.417-32.5-47.083-77.25-47.083-134.166zm74.417-2.417c0 40.5 9.417 71.25 28.083 92.167 18.75 20.916 42.5 31.333 71.334 31.333 28.749 0 52.416-10.333 70.915-31.167 18.417-20.75 27.668-51.833 27.668-93.333 0-41-9-71.583-26.918-91.833-17.998-20.167-41.916-30.25-71.665-30.25-29.834 0-53.834 10.25-72.084 30.667-18.167 20.416-27.333 51.166-27.333 92.416z" fill="#fff" fill-rule="nonzero"/></g><metadata><rdf:RDF xmlns:rdf="http://www.w3.org/1999/02/22-rdf-syntax-ns#" xmlns:rdfs="http://www.w3.org/2000/01/rdf-schema#" xmlns:dc="http://purl.org/dc/elements/1.1/"><rdf:Description about="https://iconscout.com/legal#licenses" dc:title="iso" dc:description="iso" dc:publisher="Iconscout" dc:date="2018-01-01" dc:format="image/svg+xml" dc:language="en"><dc:creator><rdf:Bag><rdf:li>Icon Bunny</rdf:li></rdf:Bag></dc:creator></rdf:Description></rdf:RDF></metadata></svg>