<?xml version="1.0" encoding="UTF-8"?><!DOCTYPE svg PUBLIC "-//W3C//DTD SVG 1.1//EN" "http://www.w3.org/Graphics/SVG/1.1/DTD/svg11.dtd"><svg xmlns="http://www.w3.org/2000/svg" xmlns:xlink="http://www.w3.org/1999/xlink" xml:space="preserve" width="2048px" height="2048px" viewBox="0 0 2048 2048" shape-rendering="geometricPrecision" text-rendering="geometricPrecision" image-rendering="optimizeQuality" fill-rule="evenodd" clip-rule="evenodd"><defs><style type="text/css"><![CDATA[
    .fil0 {fill:none}
    .fil4 {fill:#43A047}
    .fil1 {fill:#A5D6A7}
    .fil2 {fill:#C8E6C9}
    .fil3 {fill:#43A047;fill-rule:nonzero}
    .fil5 {fill:white;fill-rule:nonzero}
   ]]></style></defs><g id="Layer_x0020_1"><path class="fil0" fill="none" d="M0 0h2048v2048H0z"/><path class="fil0" fill="none" d="M255.999 255.999h1536v1536h-1536z"/><path class="fil1" d="M1303.19 263.999l328.759 329.158h-269.982c-32.328 0-58.776-26.448-58.776-58.776V263.999z" fill="#A5D6A7"/><path class="fil2" d="M454.851 263.999h848.395v268.747c0 33.228 27.184 60.411 60.411 60.411h268.344V1408c0 22-17.999 40-40 40H454.852c-22 0-39.998-18-39.998-40V304c0-22 17.999-40 39.999-40z" fill="#C8E6C9"/><path class="fil3" fill="#43A047" fill-rule="nonzero" d="M671.999 763.342H1408v64.002H671.999z"/><path class="fil3" fill="#43A047" fill-rule="nonzero" d="M671.999 987.337H1408v64.003H671.999z"/><path class="fil4" d="M337.396 1226.19h1373.21c22.375 0 42.735 9.234 57.51 24.108 14.738 14.835 23.887 35.238 23.887 57.618v394.353c0 22.381-9.15 42.782-23.887 57.618-14.777 14.874-35.136 24.109-57.51 24.109H337.396c-22.373 0-42.735-9.235-57.512-24.109-14.736-14.833-23.885-35.234-23.885-57.618v-394.353c0-22.381 9.149-42.783 23.885-57.618 14.775-14.874 35.137-24.108 57.512-24.108z" fill="#43A047"/><path class="fil5" d="M560.666 1323.1h72.084v226.584c0 29.583-2.667 52.416-7.833 68.333-7 20.833-19.668 37.584-38.084 50.166-18.417 12.667-42.667 18.918-72.75 18.918-35.334 0-62.5-9.834-81.583-29.667-19-19.75-28.667-48.75-28.75-87l68.083-7.834c.834 20.5 3.834 35 9 43.5 7.833 12.833 19.75 19.25 35.667 19.25 16.083 0 27.5-4.584 34.167-13.833 6.666-9.167 10-28.25 10-57.25V1323.1zm471.75 357.917H953.75l-31.25-81.333H779.416l-29.5 81.333h-76.667L812.665 1323.1h76.418l143.333 357.917zm-133.083-141.584L850 1406.6l-48.334 132.833h97.667zm225.584 141.584L997 1323.1h78.417l90.5 264.917 87.667-264.917h76.667l-128.167 357.917h-77.166zm527.917 0h-78.666l-31.25-81.333h-143.084l-29.5 81.333h-76.667l139.416-357.917h76.418l143.333 357.917zm-133.083-141.584l-49.333-132.833-48.334 132.833h97.667z" fill="#fff" fill-rule="nonzero"/></g><metadata><rdf:RDF xmlns:rdf="http://www.w3.org/1999/02/22-rdf-syntax-ns#" xmlns:rdfs="http://www.w3.org/2000/01/rdf-schema#" xmlns:dc="http://purl.org/dc/elements/1.1/"><rdf:Description about="https://iconscout.com/legal#licenses" dc:title="java" dc:description="java" dc:publisher="Iconscout" dc:date="2018-01-01" dc:format="image/svg+xml" dc:language="en"><dc:creator><rdf:Bag><rdf:li>Icon Bunny</rdf:li></rdf:Bag></dc:creator></rdf:Description></rdf:RDF></metadata></svg>