<?xml version="1.0" encoding="UTF-8"?><!DOCTYPE svg PUBLIC "-//W3C//DTD SVG 1.1//EN" "http://www.w3.org/Graphics/SVG/1.1/DTD/svg11.dtd"><svg xmlns="http://www.w3.org/2000/svg" xmlns:xlink="http://www.w3.org/1999/xlink" xml:space="preserve" width="2048px" height="2048px" viewBox="0 0 2048 2048" shape-rendering="geometricPrecision" text-rendering="geometricPrecision" image-rendering="optimizeQuality" fill-rule="evenodd" clip-rule="evenodd"><defs><style type="text/css"><![CDATA[
    .fil0 {fill:none}
    .fil4 {fill:#43A047}
    .fil1 {fill:#A5D6A7}
    .fil2 {fill:#C8E6C9}
    .fil3 {fill:#43A047;fill-rule:nonzero}
    .fil5 {fill:white;fill-rule:nonzero}
   ]]></style></defs><g id="Layer_x0020_1"><path class="fil0" fill="none" d="M0 0h2048v2048H0z"/><path class="fil0" fill="none" d="M255.999 255.999h1536v1536h-1536z"/><path class="fil1" d="M1303.19 263.999l328.759 329.158h-269.982c-32.328 0-58.776-26.448-58.776-58.776V263.999z" fill="#A5D6A7"/><path class="fil2" d="M454.851 263.999h848.395v268.747c0 33.228 27.184 60.411 60.411 60.411h268.344V1408c0 22-17.999 40-40 40H454.852c-22 0-39.998-18-39.998-40V304c0-22 17.999-40 39.999-40z" fill="#C8E6C9"/><path class="fil3" fill="#43A047" fill-rule="nonzero" d="M671.999 763.342H1408v64.002H671.999z"/><path class="fil3" fill="#43A047" fill-rule="nonzero" d="M671.999 987.337H1408v64.003H671.999z"/><path class="fil4" d="M337.396 1226.19h1373.21c22.375 0 42.735 9.234 57.51 24.108 14.738 14.835 23.887 35.238 23.887 57.618v394.353c0 22.381-9.15 42.782-23.887 57.618-14.777 14.874-35.136 24.109-57.51 24.109H337.396c-22.373 0-42.735-9.235-57.512-24.109-14.736-14.833-23.885-35.234-23.885-57.618v-394.353c0-22.381 9.149-42.783 23.885-57.618 14.775-14.874 35.137-24.108 57.512-24.108z" fill="#43A047"/><path class="fil5" d="M704.379 1326.14h72.082v226.58c0 29.583-2.666 52.416-7.833 68.333-7 20.832-19.667 37.582-38.083 50.166-18.417 12.666-42.666 18.915-72.749 18.915-35.334 0-62.499-9.832-81.583-29.666-19-19.749-28.666-48.748-28.75-86.998l68.083-7.833c.834 20.499 3.834 35 9 43.498 7.833 12.834 19.75 19.25 35.667 19.25 16.083 0 27.5-4.583 34.166-13.833 6.666-9.167 10-28.25 10-57.25V1326.14zm148.997 357.912V1326.14h115.916c43.916 0 72.582 1.833 85.916 5.417 20.499 5.332 37.749 17 51.582 35 13.833 18 20.75 41.248 20.75 69.664 0 22-4 40.5-12 55.416-8 15-18.083 26.75-30.416 35.333-12.25 8.5-24.75 14.167-37.416 16.917-17.25 3.417-42.25 5.166-75 5.166h-47.083v135h-72.249zm72.25-297.33v101.499h39.499c28.5 0 47.583-1.834 57.166-5.584 9.583-3.75 17.083-9.583 22.583-17.583 5.417-8 8.166-17.25 8.166-27.833 0-13-3.832-23.75-11.499-32.25-7.584-8.417-17.334-13.75-29-15.833-8.666-1.666-26-2.416-51.999-2.416h-34.917zm427.745 165.748v-60.332h155.747v142.582c-15.166 14.666-37.083 27.582-65.832 38.75-28.75 11.082-57.833 16.665-87.25 16.665-37.416 0-70.081-7.833-97.914-23.5-27.834-15.75-48.75-38.165-62.75-67.415-14-29.25-21-61-21-95.332 0-37.25 7.833-70.416 23.417-99.416 15.666-28.915 38.5-51.165 68.666-66.582 22.917-11.916 51.5-17.833 85.665-17.833 44.417 0 79.166 9.333 104.082 27.916 25 18.666 41.084 44.417 48.25 77.333l-71.75 13.416c-5.083-17.583-14.582-31.5-28.5-41.666-13.916-10.167-31.249-15.25-52.082-15.25-31.583 0-56.666 10-75.332 30-18.666 20.083-27.917 49.75-27.917 89.165 0 42.417 9.417 74.333 28.334 95.583 18.832 21.25 43.582 31.832 74.165 31.832 15.166 0 30.333-2.999 45.583-8.916 15.167-5.916 28.25-13.167 39.166-21.584v-45.416h-82.748z" fill="#fff" fill-rule="nonzero"/></g><metadata><rdf:RDF xmlns:rdf="http://www.w3.org/1999/02/22-rdf-syntax-ns#" xmlns:rdfs="http://www.w3.org/2000/01/rdf-schema#" xmlns:dc="http://purl.org/dc/elements/1.1/"><rdf:Description about="https://iconscout.com/legal#licenses" dc:title="jpg" dc:description="jpg" dc:publisher="Iconscout" dc:date="2018-01-01" dc:format="image/svg+xml" dc:language="en"><dc:creator><rdf:Bag><rdf:li>Icon Bunny</rdf:li></rdf:Bag></dc:creator></rdf:Description></rdf:RDF></metadata></svg>