<?xml version="1.0" encoding="UTF-8"?><!DOCTYPE svg PUBLIC "-//W3C//DTD SVG 1.1//EN" "http://www.w3.org/Graphics/SVG/1.1/DTD/svg11.dtd"><svg xmlns="http://www.w3.org/2000/svg" xmlns:xlink="http://www.w3.org/1999/xlink" xml:space="preserve" width="2048px" height="2048px" viewBox="0 0 2048 2048" shape-rendering="geometricPrecision" text-rendering="geometricPrecision" image-rendering="optimizeQuality" fill-rule="evenodd" clip-rule="evenodd"><defs><style type="text/css"><![CDATA[
    .fil0 {fill:none}
    .fil4 {fill:#00897B}
    .fil1 {fill:#80CBC4}
    .fil2 {fill:#B2DFDB}
    .fil3 {fill:#00897B;fill-rule:nonzero}
    .fil5 {fill:white;fill-rule:nonzero}
   ]]></style></defs><g id="Layer_x0020_1"><path class="fil0" fill="none" d="M0 0h2048v2048H0z"/><path class="fil0" fill="none" d="M255.999 255.999h1536v1536h-1536z"/><g id="_298037728"><path id="_298038496" class="fil1" d="M1303.19 263.999l328.759 329.158h-269.982c-32.328 0-58.776-26.448-58.776-58.776V263.999z" fill="#80CBC4"/><path id="_298038232" class="fil2" d="M454.851 263.999h848.395v268.747c0 33.228 27.184 60.411 60.411 60.411h268.344V1408c0 22-17.999 40-40 40H454.852c-22 0-39.998-18-39.998-40V304c0-22 17.999-40 39.999-40z" fill="#B2DFDB"/><path id="_298038064" class="fil3" d="M854.668 1022.85V633.18c112.499 64.949 225.023 129.854 337.519 194.805l-337.519 194.864z" fill="#00897B" fill-rule="nonzero"/><g><path id="_298037920" class="fil4" d="M337.396 1226.19h1373.21c22.375 0 42.735 9.234 57.51 24.108 14.738 14.835 23.887 35.238 23.887 57.618v394.353c0 22.381-9.15 42.782-23.887 57.618-14.777 14.874-35.136 24.109-57.51 24.109H337.396c-22.373 0-42.735-9.235-57.512-24.109-14.736-14.833-23.885-35.234-23.885-57.618v-394.353c0-22.381 9.149-42.783 23.885-57.618 14.775-14.874 35.137-24.108 57.512-24.108z" fill="#00897B"/><path id="_298037824" class="fil5" d="M490.209 1684.05v-357.917h108.167l64.917 244.167 64.167-244.167h108.416v357.917h-67.083V1402.3l-71.084 281.75h-69.583l-70.833-281.75v281.75H490.21zm402.833-176.75c0-36.5 5.417-67.083 16.334-91.833 8.166-18.167 19.25-34.584 33.333-49.084 14.083-14.417 29.5-25.166 46.25-32.167 22.333-9.5 48-14.166 77.167-14.166 52.749 0 94.915 16.332 126.584 49.083 31.666 32.667 47.499 78.167 47.499 136.416 0 57.834-15.75 103-47.166 135.666-31.418 32.585-73.418 48.918-125.917 48.918-53.25 0-95.584-16.25-127-48.667-31.417-32.5-47.083-77.25-47.083-134.166zm74.417-2.417c0 40.5 9.417 71.25 28.083 92.167 18.75 20.916 42.5 31.333 71.334 31.333 28.749 0 52.416-10.333 70.915-31.167 18.417-20.75 27.668-51.833 27.668-93.333 0-41-9-71.583-26.918-91.833-17.998-20.167-41.916-30.25-71.665-30.25-29.834 0-53.834 10.25-72.084 30.667-18.167 20.416-27.333 51.166-27.333 92.416zm420.417 179.166l-127.917-357.917h78.417l90.5 264.917 87.667-264.917h76.666l-128.167 357.917h-77.166z" fill="#fff" fill-rule="nonzero"/></g></g></g><metadata><rdf:RDF xmlns:rdf="http://www.w3.org/1999/02/22-rdf-syntax-ns#" xmlns:rdfs="http://www.w3.org/2000/01/rdf-schema#" xmlns:dc="http://purl.org/dc/elements/1.1/"><rdf:Description about="https://iconscout.com/legal#licenses" dc:title="mov" dc:description="mov" dc:publisher="Iconscout" dc:date="2018-01-01" dc:format="image/svg+xml" dc:language="en"><dc:creator><rdf:Bag><rdf:li>Icon Bunny</rdf:li></rdf:Bag></dc:creator></rdf:Description></rdf:RDF></metadata></svg>