<?xml version="1.0" encoding="UTF-8"?><!DOCTYPE svg PUBLIC "-//W3C//DTD SVG 1.1//EN" "http://www.w3.org/Graphics/SVG/1.1/DTD/svg11.dtd"><svg xmlns="http://www.w3.org/2000/svg" xmlns:xlink="http://www.w3.org/1999/xlink" xml:space="preserve" width="2048px" height="2048px" viewBox="0 0 2048 2048" shape-rendering="geometricPrecision" text-rendering="geometricPrecision" image-rendering="optimizeQuality" fill-rule="evenodd" clip-rule="evenodd"><defs><style type="text/css"><![CDATA[
    .fil0 {fill:none}
    .fil4 {fill:#D32F2F}
    .fil1 {fill:#EF9A9A}
    .fil2 {fill:#FFCDD2}
    .fil3 {fill:#D32F2F;fill-rule:nonzero}
    .fil5 {fill:white;fill-rule:nonzero}
   ]]></style></defs><g id="Layer_x0020_1"><path class="fil0" fill="none" d="M0 0h2048v2048H0z"/><path class="fil0" fill="none" d="M255.999 255.999h1536v1536h-1536z"/><g id="_298036240"><path id="_298037008" class="fil1" d="M1303.19 263.999l328.759 329.158h-269.982c-32.328 0-58.776-26.448-58.776-58.776V263.999z" fill="#EF9A9A"/><path id="_298036744" class="fil2" d="M454.851 263.999h848.395v268.747c0 33.228 27.184 60.411 60.411 60.411h268.344V1408c0 22-17.999 40-40 40H454.852c-22 0-39.998-18-39.998-40V304c0-22 17.999-40 39.999-40z" fill="#FFCDD2"/><path id="_298036576" class="fil3" d="M854.668 1022.85V633.18c112.499 64.949 225.023 129.854 337.519 194.805l-337.519 194.864z" fill="#D32F2F" fill-rule="nonzero"/><g><path id="_298036432" class="fil4" d="M337.396 1226.19h1373.21c22.375 0 42.735 9.234 57.51 24.108 14.738 14.835 23.887 35.238 23.887 57.618v394.353c0 22.381-9.15 42.782-23.887 57.618-14.777 14.874-35.136 24.109-57.51 24.109H337.396c-22.373 0-42.735-9.235-57.512-24.109-14.736-14.833-23.885-35.234-23.885-57.618v-394.353c0-22.381 9.149-42.783 23.885-57.618 14.775-14.874 35.137-24.108 57.512-24.108z" fill="#D32F2F"/><path id="_298036336" class="fil5" d="M556.126 1681.76v-357.917h108.167l64.917 244.167 64.167-244.167h108.416v357.917H834.71v-281.75l-71.084 281.75h-69.583l-70.833-281.75v281.75h-67.083zm417.5 0v-357.917h115.916c43.917 0 72.584 1.833 85.917 5.417 20.5 5.333 37.75 17 51.583 35 13.834 18 20.75 41.25 20.75 69.667 0 22-4 40.5-12 55.416-8 15-18.083 26.75-30.416 35.334-12.25 8.5-24.75 14.166-37.417 16.917-17.25 3.415-42.25 5.166-75 5.166h-47.084v135h-72.249zm72.25-297.333v101.5h39.5c28.5 0 47.583-1.834 57.167-5.584 9.583-3.75 17.083-9.584 22.582-17.583 5.417-8 8.168-17.25 8.168-27.833 0-13-3.834-23.75-11.5-32.25-7.583-8.417-17.333-13.75-29-15.834-8.667-1.667-26.001-2.417-52-2.417h-34.918zm243.667 202.334l66.333-8c2.167 16.916 7.833 29.833 17.167 38.75 9.25 9 20.5 13.5 33.667 13.5 14.166 0 26.082-5.417 35.75-16.167 9.666-10.75 14.5-25.167 14.5-43.416 0-17.25-4.584-30.918-13.917-41-9.25-10.168-20.583-15.167-33.917-15.167-8.75 0-19.25 1.666-31.5 5.083l7.583-55.833c18.584.417 32.75-3.583 42.5-12.084 9.75-8.583 14.667-19.917 14.667-34.083 0-12.083-3.584-21.666-10.75-28.833-7.166-7.167-16.75-10.75-28.583-10.75-11.75 0-21.75 4.083-30 12.25-8.333 8.083-13.417 20-15.167 35.583l-63.25-10.667c4.417-21.666 11-39 19.917-51.916 8.833-12.917 21.25-23.084 37.083-30.5 15.916-7.417 33.667-11.167 53.334-11.167 33.75 0 60.75 10.75 81.082 32.25 16.75 17.583 25.167 37.417 25.167 59.583 0 31.417-17.166 56.5-51.5 75.167 20.501 4.417 36.833 14.25 49.168 29.584 12.249 15.25 18.415 33.75 18.415 55.416 0 31.416-11.499 58.167-34.416 80.333-22.917 22.084-51.5 33.168-85.666 33.168-32.417 0-59.25-9.335-80.584-27.918-21.333-18.666-33.667-43-37.083-73.166z" fill="#fff" fill-rule="nonzero"/></g></g></g><metadata><rdf:RDF xmlns:rdf="http://www.w3.org/1999/02/22-rdf-syntax-ns#" xmlns:rdfs="http://www.w3.org/2000/01/rdf-schema#" xmlns:dc="http://purl.org/dc/elements/1.1/"><rdf:Description about="https://iconscout.com/legal#licenses" dc:title="mp" dc:description="mp" dc:publisher="Iconscout" dc:date="2018-01-01" dc:format="image/svg+xml" dc:language="en"><dc:creator><rdf:Bag><rdf:li>Icon Bunny</rdf:li></rdf:Bag></dc:creator></rdf:Description></rdf:RDF></metadata></svg>