<?xml version="1.0" encoding="UTF-8"?><!DOCTYPE svg PUBLIC "-//W3C//DTD SVG 1.1//EN" "http://www.w3.org/Graphics/SVG/1.1/DTD/svg11.dtd"><svg xmlns="http://www.w3.org/2000/svg" xmlns:xlink="http://www.w3.org/1999/xlink" xml:space="preserve" width="2048px" height="2048px" viewBox="0 0 2048 2048" shape-rendering="geometricPrecision" text-rendering="geometricPrecision" image-rendering="optimizeQuality" fill-rule="evenodd" clip-rule="evenodd"><defs><style type="text/css"><![CDATA[
    .fil0 {fill:none}
    .fil4 {fill:#8E24AA}
    .fil1 {fill:#CE93D8}
    .fil2 {fill:#E1BEE7}
    .fil3 {fill:#8E24AA;fill-rule:nonzero}
    .fil5 {fill:white;fill-rule:nonzero}
   ]]></style></defs><g id="Layer_x0020_1"><path class="fil0" fill="none" d="M0 0h2048v2048H0z"/><path class="fil0" fill="none" d="M255.999 255.999h1536v1536h-1536z"/><path class="fil1" d="M1303.19 263.999l328.759 329.158h-269.982c-32.328 0-58.776-26.448-58.776-58.776V263.999z" fill="#CE93D8"/><path class="fil2" d="M454.85 263.999h848.395v268.747c0 33.228 27.184 60.411 60.411 60.411H1632V1408c0 22-17.999 40-40 40H454.85c-22 0-39.998-18-39.998-40V304c0-22 17.998-40 39.999-40z" fill="#E1BEE7"/><path class="fil3" d="M854.666 1022.85V633.18c112.499 64.949 225.023 129.854 337.519 194.805l-337.519 194.864z" fill="#8E24AA" fill-rule="nonzero"/><path class="fil4" d="M337.395 1226.19h1373.21c22.375 0 42.735 9.234 57.51 24.108 14.738 14.835 23.887 35.238 23.887 57.618v394.353c0 22.381-9.15 42.782-23.887 57.618-14.777 14.874-35.136 24.109-57.51 24.109H337.395c-22.372 0-42.735-9.235-57.511-24.109-14.737-14.833-23.886-35.234-23.886-57.618v-394.353c0-22.381 9.149-42.783 23.885-57.618 14.775-14.874 35.137-24.108 57.512-24.108z" fill="#8E24AA"/><path class="fil5" d="M551.125 1684.8v-357.917h108.167l64.917 244.167 64.167-244.167h108.416V1684.8h-67.083v-281.75l-71.084 281.75h-69.583l-70.833-281.75v281.75h-67.083zm417.5 0v-357.917h115.916c43.917 0 72.584 1.833 85.917 5.417 20.5 5.333 37.75 17 51.583 35 13.834 18 20.75 41.25 20.75 69.667 0 22-4 40.5-12 55.416-8 15-18.083 26.75-30.416 35.334-12.25 8.5-24.75 14.166-37.417 16.917-17.25 3.415-42.25 5.166-75 5.166h-47.084v135h-72.249zm72.25-297.333v101.5h39.5c28.5 0 47.583-1.834 57.167-5.584 9.583-3.75 17.083-9.584 22.582-17.583 5.417-8 8.168-17.25 8.168-27.833 0-13-3.834-23.75-11.5-32.25-7.583-8.417-17.333-13.75-29-15.834-8.667-1.667-26.001-2.417-52-2.417h-34.918zm380.582 297.333v-72h-146.499v-60.083l155.333-227.334h57.584v227.084h44.416v60.333h-44.416v72h-66.417zm0-132.333v-122.334l-82.25 122.334h82.25z" fill="#fff" fill-rule="nonzero"/></g><metadata><rdf:RDF xmlns:rdf="http://www.w3.org/1999/02/22-rdf-syntax-ns#" xmlns:rdfs="http://www.w3.org/2000/01/rdf-schema#" xmlns:dc="http://purl.org/dc/elements/1.1/"><rdf:Description about="https://iconscout.com/legal#licenses" dc:title="mp" dc:description="mp" dc:publisher="Iconscout" dc:date="2018-01-01" dc:format="image/svg+xml" dc:language="en"><dc:creator><rdf:Bag><rdf:li>Icon Bunny</rdf:li></rdf:Bag></dc:creator></rdf:Description></rdf:RDF></metadata></svg>