<?xml version="1.0" encoding="UTF-8"?><!DOCTYPE svg PUBLIC "-//W3C//DTD SVG 1.1//EN" "http://www.w3.org/Graphics/SVG/1.1/DTD/svg11.dtd"><svg xmlns="http://www.w3.org/2000/svg" xmlns:xlink="http://www.w3.org/1999/xlink" xml:space="preserve" width="2048px" height="2048px" viewBox="0 0 2048 2048" shape-rendering="geometricPrecision" text-rendering="geometricPrecision" image-rendering="optimizeQuality" fill-rule="evenodd" clip-rule="evenodd"><defs><style type="text/css"><![CDATA[
    .fil0 {fill:none}
    .fil4 {fill:#8E24AA}
    .fil1 {fill:#CE93D8}
    .fil2 {fill:#E1BEE7}
    .fil3 {fill:#8E24AA;fill-rule:nonzero}
    .fil5 {fill:white;fill-rule:nonzero}
   ]]></style></defs><g id="Layer_x0020_1"><path class="fil0" fill="none" d="M0 0h2048v2048H0z"/><path class="fil0" fill="none" d="M255.999 255.999h1536v1536h-1536z"/><path class="fil1" d="M1303.19 263.999l328.759 329.158h-269.982c-32.328 0-58.776-26.448-58.776-58.776V263.999z" fill="#CE93D8"/><path class="fil2" d="M454.85 263.999h848.395v268.747c0 33.228 27.184 60.411 60.411 60.411H1632V1408c0 22-17.999 40-40 40H454.85c-22 0-39.998-18-39.998-40V304c0-22 17.998-40 39.999-40z" fill="#E1BEE7"/><path class="fil3" d="M854.666 1022.85V633.18c112.499 64.949 225.023 129.854 337.519 194.805l-337.519 194.864z" fill="#8E24AA" fill-rule="nonzero"/><path class="fil4" d="M337.395 1226.19h1373.21c22.375 0 42.735 9.234 57.51 24.108 14.738 14.835 23.887 35.238 23.887 57.618v394.353c0 22.381-9.15 42.782-23.887 57.618-14.777 14.874-35.136 24.109-57.51 24.109H337.395c-22.372 0-42.735-9.235-57.511-24.109-14.737-14.833-23.886-35.234-23.886-57.618v-394.353c0-22.381 9.149-42.783 23.885-57.618 14.775-14.874 35.137-24.108 57.512-24.108z" fill="#8E24AA"/><path class="fil5" d="M505.083 1684.05v-357.917H613.25l64.917 244.167 64.167-244.167H850.75v357.917h-67.083V1402.3l-71.084 281.75H643l-70.833-281.75v281.75h-67.083zm417.5 0v-357.917h115.916c43.917 0 72.584 1.833 85.917 5.417 20.5 5.333 37.75 17 51.584 35 13.833 18 20.75 41.25 20.75 69.667 0 22-4 40.5-12 55.416-8 15-18.084 26.75-30.417 35.334-12.25 8.5-24.75 14.166-37.417 16.917-17.25 3.415-42.25 5.166-75 5.166h-47.084v135h-72.249zm72.25-297.333v101.5h39.5c28.5 0 47.583-1.834 57.167-5.584 9.583-3.75 17.083-9.584 22.582-17.583 5.417-8 8.168-17.25 8.168-27.833 0-13-3.834-23.75-11.5-32.25-7.583-8.417-17.333-13.75-29-15.834-8.667-1.667-26.001-2.417-52-2.417h-34.918zm427.75 165.75v-60.333h155.75v142.583c-15.166 14.667-37.083 27.583-65.833 38.75-28.75 11.083-57.833 16.667-87.25 16.667-37.417 0-70.084-7.834-97.917-23.5-27.833-15.75-48.75-38.168-62.75-67.416-14-29.25-21-61-21-95.334 0-37.25 7.834-70.417 23.417-99.417 15.667-28.916 38.5-51.167 68.666-66.584 22.917-11.916 51.501-17.832 85.667-17.832 44.416 0 79.167 9.333 104.084 27.917 25 18.666 41.083 44.416 48.25 77.332l-71.75 13.417c-5.083-17.584-14.584-31.5-28.5-41.667-13.916-10.166-31.25-15.25-52.084-15.25-31.582 0-56.666 10-75.333 30-18.666 20.084-27.916 49.75-27.916 89.168 0 42.415 9.417 74.332 28.333 95.583 18.833 21.249 43.583 31.833 74.166 31.833 15.167 0 30.335-3 45.584-8.918 15.166-5.916 28.25-13.165 39.166-21.582v-45.417h-82.749z" fill="#fff" fill-rule="nonzero"/></g><metadata><rdf:RDF xmlns:rdf="http://www.w3.org/1999/02/22-rdf-syntax-ns#" xmlns:rdfs="http://www.w3.org/2000/01/rdf-schema#" xmlns:dc="http://purl.org/dc/elements/1.1/"><rdf:Description about="https://iconscout.com/legal#licenses" dc:title="mpg" dc:description="mpg" dc:publisher="Iconscout" dc:date="2018-01-01" dc:format="image/svg+xml" dc:language="en"><dc:creator><rdf:Bag><rdf:li>Icon Bunny</rdf:li></rdf:Bag></dc:creator></rdf:Description></rdf:RDF></metadata></svg>