<?xml version="1.0" encoding="UTF-8"?><!DOCTYPE svg PUBLIC "-//W3C//DTD SVG 1.1//EN" "http://www.w3.org/Graphics/SVG/1.1/DTD/svg11.dtd"><svg xmlns="http://www.w3.org/2000/svg" xmlns:xlink="http://www.w3.org/1999/xlink" xml:space="preserve" width="2048px" height="2048px" viewBox="0 0 2048 2048" shape-rendering="geometricPrecision" text-rendering="geometricPrecision" image-rendering="optimizeQuality" fill-rule="evenodd" clip-rule="evenodd"><defs><style type="text/css"><![CDATA[
    .fil0 {fill:none}
    .fil4 {fill:#D32F2F}
    .fil1 {fill:#EF9A9A}
    .fil2 {fill:#FFCDD2}
    .fil3 {fill:#D32F2F;fill-rule:nonzero}
    .fil5 {fill:white;fill-rule:nonzero}
   ]]></style></defs><g id="Layer_x0020_1"><path class="fil0" fill="none" d="M0 0h2048v2048H0z"/><path class="fil0" fill="none" d="M255.999 255.999h1536v1536h-1536z"/><path class="fil1" d="M1303.19 263.999l328.759 329.158h-269.982c-32.328 0-58.776-26.448-58.776-58.776V263.999z" fill="#EF9A9A"/><path class="fil2" d="M454.851 263.999h848.395v268.747c0 33.228 27.184 60.411 60.411 60.411h268.344V1408c0 22-17.999 40-40 40H454.852c-22 0-39.998-18-39.998-40V304c0-22 17.999-40 39.999-40z" fill="#FFCDD2"/><path class="fil3" fill="#D32F2F" fill-rule="nonzero" d="M671.999 763.342H1408v64.002H671.999z"/><path class="fil3" fill="#D32F2F" fill-rule="nonzero" d="M671.999 987.337H1408v64.003H671.999z"/><path class="fil4" d="M337.396 1226.19h1373.21c22.375 0 42.735 9.234 57.51 24.108 14.738 14.835 23.887 35.238 23.887 57.618v394.353c0 22.381-9.15 42.782-23.887 57.618-14.777 14.874-35.136 24.109-57.51 24.109H337.396c-22.373 0-42.735-9.235-57.512-24.109-14.736-14.833-23.885-35.234-23.885-57.618v-394.353c0-22.381 9.149-42.783 23.885-57.618 14.775-14.874 35.137-24.108 57.512-24.108z" fill="#D32F2F"/><path class="fil5" d="M572 1684.05v-357.917h115.916c43.917 0 72.583 1.833 85.917 5.417 20.5 5.333 37.75 17 51.584 35 13.833 18 20.75 41.25 20.75 69.667 0 22-4 40.5-12 55.416-8 15-18.084 26.75-30.417 35.334-12.25 8.5-24.75 14.166-37.417 16.917-17.25 3.415-42.25 5.166-75 5.166h-47.084v135H572zm72.25-297.333v101.5h39.5c28.5 0 47.583-1.834 57.167-5.584 9.583-3.75 17.083-9.584 22.582-17.583 5.417-8 8.168-17.25 8.168-27.833 0-13-3.834-23.75-11.5-32.25-7.583-8.417-17.333-13.75-29-15.834-8.667-1.667-26.001-2.417-52-2.417h-34.918zm261-60.584h132.083c29.75 0 52.416 2.25 68.083 6.834 21 6.167 39 17.167 53.917 33 15 15.75 26.417 35.084 34.25 57.917 7.75 22.916 11.667 51.083 11.667 84.666 0 29.417-3.668 54.834-11 76.167-8.917 26-21.667 47.084-38.334 63.167-12.5 12.25-29.417 21.75-50.75 28.582-15.916 5.084-37.25 7.584-64 7.584H905.249v-357.917zm72.25 60.584v237h53.916c20.167 0 34.75-1.083 43.75-3.417 11.667-2.916 21.417-7.833 29.166-14.833 7.75-7 14.001-18.584 18.917-34.583 4.833-16 7.333-37.917 7.333-65.584s-2.5-48.833-7.333-63.667c-4.916-14.833-11.75-26.416-20.5-34.666-8.833-8.334-20-13.917-33.5-16.833-10.083-2.334-29.834-3.417-59.333-3.417H977.5zM1267 1684.05v-357.917h245.416v60.584h-173.082v84.666h149.417v60.583h-149.417v152.084H1267z" fill="#fff" fill-rule="nonzero"/></g><metadata><rdf:RDF xmlns:rdf="http://www.w3.org/1999/02/22-rdf-syntax-ns#" xmlns:rdfs="http://www.w3.org/2000/01/rdf-schema#" xmlns:dc="http://purl.org/dc/elements/1.1/"><rdf:Description about="https://iconscout.com/legal#licenses" dc:title="pdf" dc:description="pdf" dc:publisher="Iconscout" dc:date="2018-01-01" dc:format="image/svg+xml" dc:language="en"><dc:creator><rdf:Bag><rdf:li>Icon Bunny</rdf:li></rdf:Bag></dc:creator></rdf:Description></rdf:RDF></metadata></svg>