<?xml version="1.0" encoding="UTF-8"?><!DOCTYPE svg PUBLIC "-//W3C//DTD SVG 1.1//EN" "http://www.w3.org/Graphics/SVG/1.1/DTD/svg11.dtd"><svg xmlns="http://www.w3.org/2000/svg" xmlns:xlink="http://www.w3.org/1999/xlink" xml:space="preserve" width="2048px" height="2048px" viewBox="0 0 2048 2048" shape-rendering="geometricPrecision" text-rendering="geometricPrecision" image-rendering="optimizeQuality" fill-rule="evenodd" clip-rule="evenodd"><defs><style type="text/css"><![CDATA[
    .fil0 {fill:none}
    .fil4 {fill:#D32F2F}
    .fil1 {fill:#EF9A9A}
    .fil2 {fill:#FFCDD2}
    .fil3 {fill:#D32F2F;fill-rule:nonzero}
    .fil5 {fill:white;fill-rule:nonzero}
   ]]></style></defs><g id="Layer_x0020_1"><g id="_187844736"><path id="_187845648" class="fil0" fill="none" d="M0 0h2048v2048H0z"/><path id="_187845528" class="fil0" fill="none" d="M255.999 255.999h1536v1536h-1536z"/><path id="_187845360" class="fil1" d="M1303.19 255.999l328.759 329.158h-269.982c-32.328 0-58.776-26.448-58.776-58.776V255.999z" fill="#EF9A9A"/><path id="_187845192" class="fil2" d="M454.851 255.999h848.395v268.747c0 33.228 27.184 60.411 60.411 60.411h268.344V1400c0 22-17.999 40-40 40H454.852c-22 0-39.998-18-39.998-40V296c0-22 17.999-40 39.999-40z" fill="#FFCDD2"/><path id="_187844976" class="fil3" fill="#D32F2F" fill-rule="nonzero" d="M671.999 755.343H1408v64.001H671.999z"/><path id="_187845048" class="fil3" fill="#D32F2F" fill-rule="nonzero" d="M671.999 979.338H1408v64.002H671.999z"/><path id="_187844880" class="fil4" d="M337.396 1218.19h1373.21c22.375 0 42.735 9.234 57.51 24.108 14.738 14.835 23.887 35.238 23.887 57.618v394.353c0 22.381-9.15 42.782-23.887 57.618-14.777 14.874-35.136 24.109-57.51 24.109H337.396c-22.373 0-42.735-9.235-57.512-24.109-14.736-14.833-23.885-35.234-23.885-57.618v-394.353c0-22.381 9.149-42.783 23.885-57.618 14.775-14.874 35.137-24.108 57.512-24.108z" fill="#D32F2F"/><path id="_187844808" class="fil5" d="M579.334 1676.06v-357.917H695.25c43.917 0 72.584 1.833 85.917 5.417 20.5 5.333 37.75 17 51.584 35 13.833 18 20.75 41.25 20.75 69.667 0 22-4 40.5-12 55.416-8 15-18.084 26.75-30.417 35.334-12.25 8.5-24.75 14.166-37.417 16.917-17.25 3.415-42.25 5.166-75 5.166h-47.084v135h-72.249zm72.25-297.333v101.5h39.5c28.5 0 47.583-1.834 57.167-5.584 9.583-3.75 17.083-9.584 22.582-17.583 5.417-8 8.168-17.25 8.168-27.833 0-13-3.834-23.75-11.5-32.25-7.583-8.417-17.333-13.75-29-15.834-8.667-1.667-26.001-2.417-52-2.417h-34.918zm261.25 297.333v-357.917h115.916c43.917 0 72.584 1.833 85.917 5.417 20.5 5.333 37.75 17 51.584 35 13.833 18 20.75 41.25 20.75 69.667 0 22-4 40.5-12 55.416-8 15-18.083 26.75-30.416 35.334-12.25 8.5-24.75 14.166-37.418 16.917-17.25 3.415-42.249 5.166-75 5.166h-47.083v135h-72.25zm72.25-297.333v101.5h39.5c28.5 0 47.583-1.834 57.167-5.584 9.583-3.75 17.084-9.584 22.583-17.583 5.416-8 8.167-17.25 8.167-27.833 0-13-3.834-23.75-11.5-32.25-7.583-8.417-17.333-13.75-29-15.834-8.667-1.667-26-2.417-52-2.417h-34.917zm341.75 297.333v-297.333h-106.166v-60.584h284.417v60.584h-105.917v297.333h-72.335z" fill="#fff" fill-rule="nonzero"/></g></g><metadata><rdf:RDF xmlns:rdf="http://www.w3.org/1999/02/22-rdf-syntax-ns#" xmlns:rdfs="http://www.w3.org/2000/01/rdf-schema#" xmlns:dc="http://purl.org/dc/elements/1.1/"><rdf:Description about="https://iconscout.com/legal#licenses" dc:title="ppt" dc:description="ppt" dc:publisher="Iconscout" dc:date="2018-01-01" dc:format="image/svg+xml" dc:language="en"><dc:creator><rdf:Bag><rdf:li>Icon Bunny</rdf:li></rdf:Bag></dc:creator></rdf:Description></rdf:RDF></metadata></svg>