<?xml version="1.0" encoding="UTF-8"?><!DOCTYPE svg PUBLIC "-//W3C//DTD SVG 1.1//EN" "http://www.w3.org/Graphics/SVG/1.1/DTD/svg11.dtd"><svg xmlns="http://www.w3.org/2000/svg" xmlns:xlink="http://www.w3.org/1999/xlink" xml:space="preserve" width="2048px" height="2048px" viewBox="0 0 2048 2048" shape-rendering="geometricPrecision" text-rendering="geometricPrecision" image-rendering="optimizeQuality" fill-rule="evenodd" clip-rule="evenodd"><defs><style type="text/css"><![CDATA[
    .fil0 {fill:none}
    .fil4 {fill:#283593}
    .fil1 {fill:#7986CB}
    .fil2 {fill:#C5CAE9}
    .fil3 {fill:#283593;fill-rule:nonzero}
    .fil5 {fill:white;fill-rule:nonzero}
   ]]></style></defs><g id="Layer_x0020_1"><path class="fil0" fill="none" d="M0 0h2048v2048H0z"/><path class="fil0" fill="none" d="M288 257.914h1536v1536H288z"/><path class="fil1" d="M1303.19 255.999l328.759 329.158h-269.982c-32.328 0-58.776-26.448-58.776-58.776V255.999z" fill="#7986CB"/><path class="fil2" d="M454.851 255.999h848.395v268.747c0 33.228 27.184 60.411 60.411 60.411h268.344V1400c0 22-17.999 40-40 40H454.852c-22 0-39.998-18-39.998-40V296c0-22 17.999-40 39.999-40z" fill="#C5CAE9"/><path class="fil3" fill="#283593" fill-rule="nonzero" d="M671.999 755.343H1408v64.001H671.999z"/><path class="fil3" fill="#283593" fill-rule="nonzero" d="M671.999 979.338H1408v64.002H671.999z"/><path class="fil4" d="M337.396 1218.19h1373.21c22.375 0 42.735 9.234 57.51 24.108 14.738 14.835 23.887 35.238 23.887 57.618v394.353c0 22.381-9.15 42.782-23.887 57.618-14.777 14.874-35.136 24.109-57.51 24.109H337.396c-22.373 0-42.735-9.235-57.512-24.109-14.736-14.833-23.885-35.234-23.885-57.618v-394.353c0-22.381 9.149-42.783 23.885-57.618 14.775-14.874 35.137-24.108 57.512-24.108z" fill="#283593"/><path class="fil5" d="M739.125 1675.93v-357.917h115.916c43.917 0 72.583 1.833 85.917 5.417 20.5 5.333 37.75 17 51.584 35 13.833 18 20.75 41.25 20.75 69.667 0 22-4 40.5-12 55.416-8 15-18.084 26.75-30.417 35.334-12.25 8.5-24.75 14.166-37.417 16.917-17.25 3.415-42.25 5.166-75 5.166h-47.084v135h-72.249zm72.25-297.333v101.5h39.5c28.5 0 47.583-1.834 57.167-5.584 9.583-3.75 17.083-9.584 22.582-17.583 5.417-8 8.168-17.25 8.168-27.833 0-13-3.834-23.75-11.5-32.25-7.583-8.417-17.333-13.75-29-15.834-8.667-1.667-26.001-2.417-52-2.417h-34.918zm242.917 180.917l70.333-6.917c4.167 23.667 12.75 41 25.75 52.084 12.916 11 30.333 16.583 52.334 16.583 23.25 0 40.833-4.916 52.582-14.833 11.834-9.834 17.751-21.333 17.751-34.5 0-8.5-2.5-15.667-7.5-21.584-4.917-6-13.584-11.167-26-15.5-8.417-3-27.75-8.166-57.834-15.666-38.75-9.584-65.916-21.417-81.5-35.417-22-19.667-33-43.667-33-72 0-18.25 5.167-35.25 15.5-51.167 10.334-15.834 25.25-27.916 44.667-36.25 19.5-8.25 42.917-12.416 70.417-12.416 45 0 78.75 9.833 101.5 29.5 22.666 19.75 34.582 46 35.75 78.916l-72.251 3.166c-3.083-18.415-9.75-31.666-19.916-39.666-10.167-8.083-25.417-12.084-45.75-12.084-21 0-37.5 4.251-49.334 12.918-7.666 5.5-11.5 12.916-11.5 22.166 0 8.5 3.584 15.75 10.75 21.75 9.083 7.666 31.25 15.667 66.417 23.917 35.167 8.333 61.166 16.916 78 25.75 16.834 8.917 30 21 39.583 36.416 9.5 15.417 14.25 34.418 14.25 57 0 20.5-5.666 39.75-17.084 57.584-11.416 17.916-27.5 31.25-48.333 39.916-20.833 8.75-46.833 13.083-77.916 13.083-45.25 0-80-10.416-104.25-31.333-24.25-20.916-38.75-51.416-43.416-91.416z" fill="#fff" fill-rule="nonzero"/></g><metadata><rdf:RDF xmlns:rdf="http://www.w3.org/1999/02/22-rdf-syntax-ns#" xmlns:rdfs="http://www.w3.org/2000/01/rdf-schema#" xmlns:dc="http://purl.org/dc/elements/1.1/"><rdf:Description about="https://iconscout.com/legal#licenses" dc:title="ps" dc:description="ps" dc:publisher="Iconscout" dc:date="2018-01-01" dc:format="image/svg+xml" dc:language="en"><dc:creator><rdf:Bag><rdf:li>Icon Bunny</rdf:li></rdf:Bag></dc:creator></rdf:Description></rdf:RDF></metadata></svg>