<?xml version="1.0" encoding="UTF-8"?><!DOCTYPE svg PUBLIC "-//W3C//DTD SVG 1.1//EN" "http://www.w3.org/Graphics/SVG/1.1/DTD/svg11.dtd"><svg xmlns="http://www.w3.org/2000/svg" xmlns:xlink="http://www.w3.org/1999/xlink" xml:space="preserve" width="2048px" height="2048px" viewBox="0 0 2048 2048" shape-rendering="geometricPrecision" text-rendering="geometricPrecision" image-rendering="optimizeQuality" fill-rule="evenodd" clip-rule="evenodd"><defs><style type="text/css"><![CDATA[
    .fil0 {fill:none}
    .fil4 {fill:#00897B}
    .fil1 {fill:#80CBC4}
    .fil2 {fill:#B2DFDB}
    .fil3 {fill:#00897B;fill-rule:nonzero}
    .fil5 {fill:white;fill-rule:nonzero}
   ]]></style></defs><g id="Layer_x0020_1"><path class="fil0" fill="none" d="M0 0h2048v2048H0z"/><path class="fil0" fill="none" d="M255.999 255.999h1536v1536h-1536z"/><path class="fil1" d="M1303.19 263.999l328.759 329.158h-269.982c-32.328 0-58.776-26.448-58.776-58.776V263.999z" fill="#80CBC4"/><path class="fil2" d="M454.851 263.999h848.395v268.747c0 33.228 27.184 60.411 60.411 60.411h268.344V1408c0 22-17.999 40-40 40H454.852c-22 0-39.998-18-39.998-40V304c0-22 17.999-40 39.999-40z" fill="#B2DFDB"/><path class="fil3" fill="#00897B" fill-rule="nonzero" d="M671.999 763.342H1408v64.002H671.999z"/><path class="fil3" fill="#00897B" fill-rule="nonzero" d="M671.999 987.337H1408v64.003H671.999z"/><path class="fil4" d="M337.396 1226.19h1373.21c22.375 0 42.735 9.234 57.51 24.108 14.738 14.835 23.887 35.238 23.887 57.618v394.353c0 22.381-9.15 42.782-23.887 57.618-14.777 14.874-35.136 24.109-57.51 24.109H337.396c-22.373 0-42.735-9.235-57.512-24.109-14.736-14.833-23.885-35.234-23.885-57.618v-394.353c0-22.381 9.149-42.783 23.885-57.618 14.775-14.874 35.137-24.108 57.512-24.108z" fill="#00897B"/><path class="fil5" d="M558.75 1683.93v-357.917h152.166c38.25 0 66 3.25 83.334 9.667 17.333 6.416 31.25 17.833 41.666 34.25 10.417 16.5 15.583 35.25 15.583 56.417 0 26.833-7.916 49.083-23.666 66.583-15.75 17.417-39.417 28.5-70.834 33 15.667 9.167 28.584 19.167 38.75 30.083 10.167 10.917 23.834 30.25 41.084 58.083l43.75 69.834h-86.417l-52.25-77.916c-18.583-27.834-31.25-45.335-38.083-52.584-6.834-7.25-14.084-12.167-21.75-14.917-7.667-2.666-19.75-4-36.417-4h-14.583v149.417H558.75zm72.333-206.583H684.5c34.666 0 56.334-1.417 65-4.333 8.584-2.917 15.334-8 20.25-15.167 4.834-7.167 7.333-16.083 7.333-26.833 0-12.083-3.25-21.75-9.666-29.167-6.417-7.417-15.5-12.084-27.25-14.083-5.834-.75-23.417-1.167-52.75-1.167h-56.334v90.75zm270.251 90.167l70.332-6.917c4.167 23.667 12.75 41 25.75 52.083 12.917 11 30.334 16.584 52.334 16.584 23.25 0 40.833-4.917 52.583-14.833 11.834-9.834 17.75-21.334 17.75-34.5 0-8.5-2.5-15.668-7.5-21.584-4.916-6-13.583-11.167-26-15.5-8.417-3-27.75-8.167-57.833-15.667-38.75-9.583-65.916-21.417-81.5-35.416-22-19.667-33-43.667-33-72 0-18.25 5.167-35.25 15.5-51.167 10.334-15.834 25.25-27.917 44.667-36.25 19.5-8.25 42.917-12.416 70.416-12.416 45 0 78.75 9.832 101.5 29.499 22.667 19.75 34.583 46 35.75 78.916l-72.25 3.167c-3.083-18.416-9.75-31.667-19.916-39.666-10.167-8.084-25.418-12.084-45.75-12.084-21 0-37.5 4.25-49.334 12.918-7.666 5.499-11.5 12.916-11.5 22.165 0 8.5 3.583 15.75 10.75 21.75 9.083 7.667 31.25 15.668 66.417 23.918 35.166 8.332 61.166 16.916 78 25.749 16.833 8.917 30 21 39.583 36.417 9.5 15.417 14.25 34.417 14.25 57 0 20.5-5.666 39.75-17.084 57.583-11.416 17.917-27.5 31.25-48.333 39.917-20.833 8.75-46.833 13.083-77.916 13.083-45.25 0-80-10.416-104.25-31.333-24.25-20.917-38.75-51.416-43.416-91.417zm333.5 0l70.332-6.917c4.167 23.667 12.75 41 25.75 52.083 12.917 11 30.334 16.584 52.334 16.584 23.25 0 40.833-4.917 52.583-14.833 11.833-9.834 17.75-21.334 17.75-34.5 0-8.5-2.5-15.668-7.5-21.584-4.916-6-13.583-11.167-26-15.5-8.417-3-27.75-8.167-57.833-15.667-38.75-9.583-65.916-21.417-81.5-35.416-22-19.667-33-43.667-33-72 0-18.25 5.167-35.25 15.5-51.167 10.334-15.834 25.25-27.917 44.667-36.25 19.5-8.25 42.917-12.416 70.416-12.416 45 0 78.75 9.832 101.5 29.499 22.667 19.75 34.583 46 35.75 78.916l-72.25 3.167c-3.083-18.416-9.75-31.667-19.916-39.666-10.167-8.084-25.418-12.084-45.75-12.084-21 0-37.5 4.25-49.334 12.918-7.666 5.499-11.5 12.916-11.5 22.165 0 8.5 3.583 15.75 10.75 21.75 9.083 7.667 31.25 15.668 66.417 23.918 35.166 8.332 61.166 16.916 78 25.749 16.833 8.917 30 21 39.583 36.417 9.5 15.417 14.25 34.417 14.25 57 0 20.5-5.666 39.75-17.084 57.583-11.416 17.917-27.5 31.25-48.333 39.917-20.833 8.75-46.833 13.083-77.916 13.083-45.25 0-80-10.416-104.25-31.333-24.25-20.917-38.75-51.416-43.416-91.417z" fill="#fff" fill-rule="nonzero"/></g><metadata><rdf:RDF xmlns:rdf="http://www.w3.org/1999/02/22-rdf-syntax-ns#" xmlns:rdfs="http://www.w3.org/2000/01/rdf-schema#" xmlns:dc="http://purl.org/dc/elements/1.1/"><rdf:Description about="https://iconscout.com/legal#licenses" dc:title="rss" dc:description="rss" dc:publisher="Iconscout" dc:date="2018-01-01" dc:format="image/svg+xml" dc:language="en"><dc:creator><rdf:Bag><rdf:li>Icon Bunny</rdf:li></rdf:Bag></dc:creator></rdf:Description></rdf:RDF></metadata></svg>