<?xml version="1.0" encoding="UTF-8"?><!DOCTYPE svg PUBLIC "-//W3C//DTD SVG 1.1//EN" "http://www.w3.org/Graphics/SVG/1.1/DTD/svg11.dtd"><svg xmlns="http://www.w3.org/2000/svg" xmlns:xlink="http://www.w3.org/1999/xlink" xml:space="preserve" width="2048px" height="2048px" viewBox="0 0 2048 2048" shape-rendering="geometricPrecision" text-rendering="geometricPrecision" image-rendering="optimizeQuality" fill-rule="evenodd" clip-rule="evenodd"><defs><style type="text/css"><![CDATA[
    .fil0 {fill:none}
    .fil4 {fill:#3949AB}
    .fil1 {fill:#7986CB}
    .fil2 {fill:#C5CAE9}
    .fil3 {fill:#3949AB;fill-rule:nonzero}
    .fil5 {fill:white;fill-rule:nonzero}
   ]]></style></defs><g id="Layer_x0020_1"><g id="_187831080"><path id="_187831992" class="fil0" fill="none" d="M0 0h2048v2048H0z"/><path id="_187831872" class="fil0" fill="none" d="M255.999 255.999h1536v1536h-1536z"/><path id="_187831704" class="fil1" d="M1303.19 255.999l328.759 329.158h-269.982c-32.328 0-58.776-26.448-58.776-58.776V255.999z" fill="#7986CB"/><path id="_187831536" class="fil2" d="M454.851 255.999h848.395v268.747c0 33.228 27.184 60.411 60.411 60.411h268.344V1400c0 22-17.999 40-40 40H454.852c-22 0-39.998-18-39.998-40V296c0-22 17.999-40 39.999-40z" fill="#C5CAE9"/><path id="_187831320" class="fil3" fill="#3949AB" fill-rule="nonzero" d="M671.999 755.343H1408v64.001H671.999z"/><path id="_187831392" class="fil3" fill="#3949AB" fill-rule="nonzero" d="M671.999 979.338H1408v64.002H671.999z"/><path id="_187831224" class="fil4" d="M337.396 1218.19h1373.21c22.375 0 42.735 9.234 57.51 24.108 14.738 14.835 23.887 35.238 23.887 57.618v394.353c0 22.381-9.15 42.782-23.887 57.618-14.777 14.874-35.136 24.109-57.51 24.109H337.396c-22.373 0-42.735-9.235-57.512-24.109-14.736-14.833-23.885-35.234-23.885-57.618v-394.353c0-22.381 9.149-42.783 23.885-57.618 14.775-14.874 35.137-24.108 57.512-24.108z" fill="#3949AB"/><path id="_187831152" class="fil5" d="M586.209 1676.06v-357.917h152.166c38.25 0 66 3.25 83.334 9.667 17.333 6.416 31.25 17.833 41.666 34.25 10.417 16.5 15.583 35.25 15.583 56.417 0 26.833-7.916 49.083-23.666 66.583-15.75 17.417-39.417 28.5-70.834 33 15.667 9.167 28.584 19.167 38.75 30.083 10.167 10.917 23.834 30.25 41.084 58.083l43.75 69.834h-86.417l-52.25-77.916c-18.583-27.834-31.25-45.335-38.083-52.584-6.834-7.25-14.084-12.167-21.75-14.917-7.667-2.666-19.75-4-36.417-4h-14.583v149.417h-72.333zm72.333-206.583h53.417c34.666 0 56.334-1.417 65-4.333 8.584-2.917 15.334-8 20.25-15.167 4.834-7.167 7.333-16.083 7.333-26.833 0-12.083-3.25-21.75-9.666-29.167-6.417-7.417-15.5-12.084-27.25-14.083-5.834-.75-23.417-1.167-52.75-1.167h-56.334v90.75zm369.083 206.583v-297.333H921.46v-60.584h284.417v60.584H1099.96v297.333h-72.334zm225.334 0v-357.917h245.416v60.584h-173.082v84.666h149.417v60.583h-149.417v152.084h-72.333z" fill="#fff" fill-rule="nonzero"/></g></g><metadata><rdf:RDF xmlns:rdf="http://www.w3.org/1999/02/22-rdf-syntax-ns#" xmlns:rdfs="http://www.w3.org/2000/01/rdf-schema#" xmlns:dc="http://purl.org/dc/elements/1.1/"><rdf:Description about="https://iconscout.com/legal#licenses" dc:title="rtf" dc:description="rtf" dc:publisher="Iconscout" dc:date="2018-01-01" dc:format="image/svg+xml" dc:language="en"><dc:creator><rdf:Bag><rdf:li>Icon Bunny</rdf:li></rdf:Bag></dc:creator></rdf:Description></rdf:RDF></metadata></svg>