<?xml version="1.0" encoding="UTF-8"?><!DOCTYPE svg PUBLIC "-//W3C//DTD SVG 1.1//EN" "http://www.w3.org/Graphics/SVG/1.1/DTD/svg11.dtd"><svg xmlns="http://www.w3.org/2000/svg" xmlns:xlink="http://www.w3.org/1999/xlink" xml:space="preserve" width="2048px" height="2048px" viewBox="0 0 2048 2048" shape-rendering="geometricPrecision" text-rendering="geometricPrecision" image-rendering="optimizeQuality" fill-rule="evenodd" clip-rule="evenodd"><defs><style type="text/css"><![CDATA[
    .fil0 {fill:none}
    .fil4 {fill:#039BE5}
    .fil1 {fill:#81D4FA}
    .fil2 {fill:#B3E5FC}
    .fil3 {fill:#039BE5;fill-rule:nonzero}
    .fil5 {fill:white;fill-rule:nonzero}
   ]]></style></defs><g id="Layer_x0020_1"><path class="fil0" fill="none" d="M0 0h2048v2048H0z"/><path class="fil0" fill="none" d="M255.999 255.999h1536v1536h-1536z"/><path class="fil1" d="M1303.19 263.999l328.759 329.158h-269.982c-32.328 0-58.776-26.448-58.776-58.776V263.999z" fill="#81D4FA"/><path class="fil2" d="M454.851 263.999h848.395v268.747c0 33.228 27.184 60.411 60.411 60.411h268.344V1408c0 22-17.999 40-40 40H454.852c-22 0-39.998-18-39.998-40V304c0-22 17.999-40 39.999-40z" fill="#B3E5FC"/><path class="fil3" fill="#039BE5" fill-rule="nonzero" d="M671.999 763.342H1408v64.002H671.999z"/><path class="fil3" fill="#039BE5" fill-rule="nonzero" d="M671.999 987.337H1408v64.003H671.999z"/><path class="fil4" d="M337.396 1226.19h1373.21c22.375 0 42.735 9.234 57.51 24.108 14.738 14.835 23.887 35.238 23.887 57.618v394.353c0 22.381-9.15 42.782-23.887 57.618-14.777 14.874-35.136 24.109-57.51 24.109H337.396c-22.373 0-42.735-9.235-57.512-24.109-14.736-14.833-23.885-35.234-23.885-57.618v-394.353c0-22.381 9.149-42.783 23.885-57.618 14.775-14.874 35.137-24.108 57.512-24.108z" fill="#039BE5"/><path class="fil5" d="M535.75 1552.72l70.332-6.917c4.167 23.667 12.75 41 25.75 52.084 12.917 11 30.334 16.583 52.334 16.583 23.25 0 40.833-4.916 52.583-14.833 11.833-9.834 17.75-21.333 17.75-34.5 0-8.5-2.5-15.667-7.5-21.584-4.916-6-13.583-11.167-26-15.5-8.417-3-27.75-8.166-57.833-15.666-38.75-9.584-65.916-21.417-81.5-35.417-22-19.667-33-43.667-33-72 0-18.25 5.167-35.25 15.5-51.167 10.334-15.834 25.25-27.916 44.667-36.25 19.5-8.25 42.917-12.416 70.416-12.416 45 0 78.75 9.833 101.5 29.5 22.667 19.75 34.583 46 35.75 78.916l-72.25 3.166c-3.083-18.415-9.75-31.666-19.916-39.666-10.167-8.083-25.418-12.084-45.75-12.084-21 0-37.5 4.251-49.334 12.918-7.666 5.5-11.5 12.917-11.5 22.166 0 8.5 3.583 15.75 10.75 21.75 9.083 7.666 31.25 15.667 66.417 23.917 35.166 8.333 61.166 16.916 78 25.75 16.833 8.917 30 21 39.583 36.416 9.5 15.417 14.25 34.418 14.25 57 0 20.5-5.666 39.75-17.084 57.584-11.416 17.916-27.5 31.25-48.333 39.916-20.834 8.75-46.833 13.084-77.916 13.084-45.25 0-80-10.417-104.25-31.334-24.25-20.916-38.75-51.416-43.416-91.416zm639.916 71a233.172 233.172 0 0 0 57.834 30.25l-26.584 51.083c-10.916-3.25-21.583-7.75-32-13.416-2.333-1.167-18.333-11.75-48.083-31.75-23.5 10.25-49.417 15.334-77.917 15.334-55 0-98.084-16.167-129.25-48.584-31.166-32.334-46.75-77.833-46.75-136.417 0-58.5 15.584-103.916 46.834-136.416 31.25-32.417 73.666-48.666 127.25-48.666 53 0 95.083 16.25 126.167 48.666 31.084 32.5 46.667 77.916 46.667 136.416 0 30.917-4.333 58.084-12.917 81.5-6.583 17.917-17 35.25-31.25 52zm-58.167-40.75c9.334-10.916 16.25-24.083 20.917-39.583 4.583-15.417 6.917-33.167 6.917-53.167 0-41.417-9.084-72.25-27.333-92.666-18.25-20.417-42.084-30.667-71.5-30.667-29.501 0-53.333 10.25-71.668 30.75-18.333 20.5-27.5 51.333-27.5 92.583 0 41.75 9.167 73.084 27.5 93.834 18.335 20.75 41.417 31.167 69.417 31.167 10.418 0 20.334-1.75 29.583-5.168-14.665-9.583-29.583-17.083-44.665-22.5l20.25-41.25c23.75 8.168 46.5 20.334 68.082 36.668zm160.918 86.167v-355h72.25v294.667h179.666v60.333h-251.916z" fill="#fff" fill-rule="nonzero"/></g><metadata><rdf:RDF xmlns:rdf="http://www.w3.org/1999/02/22-rdf-syntax-ns#" xmlns:rdfs="http://www.w3.org/2000/01/rdf-schema#" xmlns:dc="http://purl.org/dc/elements/1.1/"><rdf:Description about="https://iconscout.com/legal#licenses" dc:title="sql" dc:description="sql" dc:publisher="Iconscout" dc:date="2018-01-01" dc:format="image/svg+xml" dc:language="en"><dc:creator><rdf:Bag><rdf:li>Icon Bunny</rdf:li></rdf:Bag></dc:creator></rdf:Description></rdf:RDF></metadata></svg>