<svg id="e263fee6-9cf3-4a70-b816-1b4b1434dc3f" data-name="Layer 1" xmlns="http://www.w3.org/2000/svg" viewBox="0 0 2048 2048"><defs><style>.bd8674d4-75c2-4a70-bbd6-c2a405bd85ca{fill:none;}.a14ca3f5-ac71-4871-b27e-57b22ec690a6{fill:#a5d6a7;}.a14ca3f5-ac71-4871-b27e-57b22ec690a6,.b93253e0-6bd9-4d53-b6c9-350898229add,.fe659222-d911-4f53-b11b-407253f2a03a{fill-rule:evenodd;}.b93253e0-6bd9-4d53-b6c9-350898229add{fill:#c8e6c9;}.b71d9103-a141-416c-9e40-9edbc923a259,.fe659222-d911-4f53-b11b-407253f2a03a{fill:#43a047;}.fbcf1d55-7d53-4fce-becb-6ce9deaad68e{fill:#fff;}</style></defs><g id="e0d94492-8a7c-488f-8c0d-79b2493d988a" data-name="Layer_1"><g id="aeb458d5-af8d-4414-aff2-65751932cbb4" data-name=" 187054304"><path id="ff1c8b48-a8f8-4c8a-af40-35557a65fa0e" data-name=" 185238304" class="bd8674d4-75c2-4a70-bbd6-c2a405bd85ca" d="M0,0H2048V2048H0Z"/><path id="a65beb47-a7ce-48de-a3f1-a00d627d97c4" data-name=" 185238184" class="bd8674d4-75c2-4a70-bbd6-c2a405bd85ca" d="M255.999,255.999h1536v1536h-1536Z"/><path id="ab0c3585-239b-4e3c-83f3-bc545dd05b98" data-name=" 185238016" class="a14ca3f5-ac71-4871-b27e-57b22ec690a6" d="M1303.18994,255.999l328.759,329.158H1361.967a58.94724,58.94724,0,0,1-58.776-58.776V255.999Z"/><path id="b27f771d-d886-41d8-a228-d0ec6b58b859" data-name=" 185237848" class="b93253e0-6bd9-4d53-b6c9-350898229add" d="M454.851,255.999h848.39508V524.746a60.58669,60.58669,0,0,0,60.411,60.411h268.344V1400a40.117,40.117,0,0,1-40,40H454.852a40.11587,40.11587,0,0,1-39.998-40V296a40.11674,40.11674,0,0,1,39.999-40Z"/><path id="a3f58555-517d-4fb7-9b03-1df3117dc4b3" data-name=" 185237632" class="b71d9103-a141-416c-9e40-9edbc923a259" d="M671.999,755.343H1408v64.001H671.999Z"/><path id="b32f8e5d-b454-4264-b477-3a545b57b444" data-name=" 185237704" class="b71d9103-a141-416c-9e40-9edbc923a259" d="M671.999,979.338H1408v64.002H671.999Z"/><path id="a74ca444-0939-4575-a681-b5f8927f844a" data-name=" 187054448" class="fe659222-d911-4f53-b11b-407253f2a03a" d="M337.396,1218.18994h1373.21a81.93568,81.93568,0,0,1,81.397,81.72608v394.353a81.93737,81.93737,0,0,1-81.397,81.72705H337.396a81.93395,81.93395,0,0,1-81.397-81.72705V1299.916a81.93226,81.93226,0,0,1,81.397-81.72608Z"/></g></g><path class="fbcf1d55-7d53-4fce-becb-6ce9deaad68e" d="M418.28369,1633.21289V1406.627H337.36035v-46.13574H554.08594V1406.627H473.34863v226.58594Z"/><path class="fbcf1d55-7d53-4fce-becb-6ce9deaad68e" d="M807.27393,1633.21289H747.37207l-23.812-61.94824H614.5459l-22.50977,61.94824H533.62256l106.22363-272.72168h58.22754ZM705.88721,1525.31543l-37.57813-101.20117-36.83447,101.20117Z"/><path class="fbcf1d55-7d53-4fce-becb-6ce9deaad68e" d="M836.66748,1633.21289V1360.49121h115.897q43.71461,0,63.52979,7.34863,19.81274,7.35059,31.71826,26.1377,11.90332,18.791,11.90625,42.97266,0,30.69579-18.04492,50.69335-18.04687,19.99952-53.94922,25.207,17.85864,10.42089,29.48584,22.88183,11.62426,12.46582,31.34619,44.27539l33.29981,53.20508H1016.001l-39.81055-59.34375q-21.20727-31.812-29.02051-40.08984-7.81347-8.2749-16.55713-11.34766-8.74584-3.07031-27.71826-3.06934H891.73242v113.85059Zm55.06494-157.38184h40.74072q39.62477,0,49.48438-3.34863a29.65046,29.65046,0,0,0,15.44043-11.53418q5.58105-8.18407,5.58105-20.46386,0-13.76369-7.34814-22.23047-7.35132-8.46241-20.74268-10.69629-6.69726-.92871-40.18261-.93067H891.73242Z"/><path class="fbcf1d55-7d53-4fce-becb-6ce9deaad68e" d="M1111.249,1633.21289v-52.27441h52.27442v52.27441Z"/><path class="fbcf1d55-7d53-4fce-becb-6ce9deaad68e" d="M1344.3457,1532.94238v-45.95019h118.6875v108.64258q-17.30127,16.74317-50.13476,29.48535a182.51443,182.51443,0,0,1-66.50684,12.74316q-42.78955,0-74.59765-17.95117a114.13481,114.13481,0,0,1-47.81055-51.34473q-16.002-33.38964-15.99805-72.6455,0-42.59766,17.8584-75.71485,17.85938-33.10986,52.27441-50.78613,26.231-13.57764,65.29688-13.58008,50.7876,0,79.34277,21.30078,28.55421,21.30323,36.74121,58.87891l-54.69336,10.23144q-5.76855-20.0918-21.67285-31.71875-15.90527-11.62353-39.71777-11.627-36.09228,0-57.38965,22.88184-21.30468,22.88232-21.30078,67.90136,0,48.55518,21.5791,72.83106,21.57861,24.27685,56.55371,24.27734a94.797,94.797,0,0,0,34.69434-6.79,118.84291,118.84291,0,0,0,29.8584-16.46386v-34.60157Z"/><path class="fbcf1d55-7d53-4fce-becb-6ce9deaad68e" d="M1490.19336,1633.21289V1583.543l143.24414-176.916H1506.37793v-46.13574h199.61133v42.78711l-149.38281,183.98535h155.14941v45.94922Z"/></svg>