<svg id="e16822d4-dc51-4acf-806a-80583a157c24" data-name="Layer 1" xmlns="http://www.w3.org/2000/svg" viewBox="0 0 2048 2048"><defs><style>.be2d9038-11cd-4116-ab59-35e1e6dbd0f7{fill:none;}.e345e42b-22d2-4524-b7a6-34e778ae12c9{fill:#d7ccc8;}.a19fbb14-e78e-4a9d-9845-be56254bd8de,.a7421456-e7cd-4740-b69f-8abd78d1020d,.e345e42b-22d2-4524-b7a6-34e778ae12c9{fill-rule:evenodd;}.a7421456-e7cd-4740-b69f-8abd78d1020d{fill:#a1887f;}.a19fbb14-e78e-4a9d-9845-be56254bd8de,.b036d05c-d7a1-482b-a9e1-56763f18bcd6{fill:#8d6e63;}.e3b66de3-13c2-4f37-b83c-f254af74fb55{fill:#fff;}</style></defs><g id="f25f0df0-523b-4ce2-8f70-9698a1a347bf" data-name="Layer_1"><path class="be2d9038-11cd-4116-ab59-35e1e6dbd0f7" d="M0,0H2048V2048H0Z"/><path class="be2d9038-11cd-4116-ab59-35e1e6dbd0f7" d="M255.999,255.999h1536v1536h-1536Z"/><g id="f34d11af-f797-489f-87e3-b7b70f771069" data-name=" 297523408"><path id="fa20e69e-26ad-49fd-b0e5-6a83c475b565" data-name=" 297524152" class="e345e42b-22d2-4524-b7a6-34e778ae12c9" d="M454.851,255.999h848.39508V524.746a60.58669,60.58669,0,0,0,60.411,60.411h268.344V1400a40.117,40.117,0,0,1-40,40H454.852a40.11587,40.11587,0,0,1-39.998-40V296a40.11674,40.11674,0,0,1,39.999-40Z"/><path id="b7564b54-f583-4f34-a0ea-ad14f6732c6c" data-name=" 297524056" class="a7421456-e7cd-4740-b69f-8abd78d1020d" d="M1303.18994,255.999l328.759,329.158H1361.967a58.94724,58.94724,0,0,1-58.776-58.776V255.999Z"/><path id="a2f5c84f-9f67-4a4d-a855-bf016b58f500" data-name=" 297523960" class="b036d05c-d7a1-482b-a9e1-56763f18bcd6" d="M671.999,755.343H1408v64.001H671.999Z"/><path id="b77856de-91eb-48d4-b011-15e056cbe5dd" data-name=" 297523936" class="b036d05c-d7a1-482b-a9e1-56763f18bcd6" d="M671.999,979.338H1408v64.002H671.999Z"/><path id="a3f6fc8f-c536-4c86-91be-6f7670867d5f" data-name=" 297523576" class="a19fbb14-e78e-4a9d-9845-be56254bd8de" d="M337.396,1218.18994h1373.21a81.93568,81.93568,0,0,1,81.397,81.72608v394.353a81.93737,81.93737,0,0,1-81.397,81.72705H337.396a81.93395,81.93395,0,0,1-81.397-81.72705V1299.916a81.93226,81.93226,0,0,1,81.397-81.72608Z"/></g></g><path class="e3b66de3-13c2-4f37-b83c-f254af74fb55" d="M643.66211,1676.22852V1377.25879H536.88721v-60.874h285.96v60.874H716.31787v298.96973Z"/><path class="e3b66de3-13c2-4f37-b83c-f254af74fb55" d="M1156.918,1676.22852h-79.03906l-31.418-81.73829H902.62158l-29.70068,81.73829H795.84668l140.15723-359.84375h76.82861Zm-133.7749-142.36622L973.55957,1400.332,924.9585,1533.8623Z"/><path class="e3b66de3-13c2-4f37-b83c-f254af74fb55" d="M1195.7002,1676.22852V1316.38477h152.92089q57.67969,0,83.82422,9.69628,26.14161,9.69875,41.85059,34.48633,15.706,24.79542,15.71,56.70117,0,40.50147-23.80957,66.8877-23.811,26.38915-71.18359,33.25977,23.56494,13.75049,38.90527,30.1914,15.33837,16.44873,41.36035,58.41992l43.93652,70.20118h-86.89257l-52.52832-78.30176q-27.98145-41.97363-38.291-52.89649-10.30958-10.91893-21.8457-14.97265-11.54151-4.0503-36.57422-4.04981h-14.72754v150.22071Zm72.65527-207.65821h53.75586q52.2832,0,65.292-4.41894a39.1193,39.1193,0,0,0,20.37305-15.21875q7.36377-10.79736,7.36425-27,0-18.1626-9.69531-29.332-9.70019-11.16651-27.36914-14.11426-8.83593-1.22607-53.01953-1.22754h-56.70117Z"/></svg>